<?xml version="1.0" standalone="no"?>
<!DOCTYPE svg PUBLIC "-//W3C//DTD SVG 1.1//EN" "http://www.w3.org/Graphics/SVG/1.1/DTD/svg11.dtd">
<svg version="1.1" width="1200" height="454" onload="init(evt)" viewBox="0 0 1200 454" xmlns="http://www.w3.org/2000/svg" xmlns:xlink="http://www.w3.org/1999/xlink">
<!-- Flame graph stack visualization. See https://github.com/brendangregg/FlameGraph for latest version, and http://www.brendangregg.com/flamegraphs.html for examples. -->
<!-- NOTES:  -->
<defs>
	<linearGradient id="background" y1="0" y2="1" x1="0" x2="0" >
		<stop stop-color="#eeeeee" offset="5%" />
		<stop stop-color="#eeeeb0" offset="95%" />
	</linearGradient>
</defs>
<style type="text/css">
	text { font-family:Verdana; font-size:12px; fill:rgb(0,0,0); }
	#search, #ignorecase { opacity:0.1; cursor:pointer; }
	#search:hover, #search.show, #ignorecase:hover, #ignorecase.show { opacity:1; }
	#subtitle { text-anchor:middle; font-color:rgb(160,160,160); }
	#title { text-anchor:middle; font-size:17px}
	#unzoom { cursor:pointer; }
	#frames > *:hover { stroke:black; stroke-width:0.5; cursor:pointer; }
	.hide { display:none; }
	.parent { opacity:0.5; }
</style>
<script type="text/ecmascript">
<![CDATA[
	"use strict";
	var details, searchbtn, unzoombtn, matchedtxt, svg, searching, currentSearchTerm, ignorecase, ignorecaseBtn;
	function init(evt) {
		details = document.getElementById("details").firstChild;
		searchbtn = document.getElementById("search");
		ignorecaseBtn = document.getElementById("ignorecase");
		unzoombtn = document.getElementById("unzoom");
		matchedtxt = document.getElementById("matched");
		svg = document.getElementsByTagName("svg")[0];
		searching = 0;
		currentSearchTerm = null;
	}

	window.addEventListener("click", function(e) {
		var target = find_group(e.target);
		if (target) {
			if (target.nodeName == "a") {
				if (e.ctrlKey === false) return;
				e.preventDefault();
			}
			if (target.classList.contains("parent")) unzoom();
			zoom(target);
		}
		else if (e.target.id == "unzoom") unzoom();
		else if (e.target.id == "search") search_prompt();
		else if (e.target.id == "ignorecase") toggle_ignorecase();
	}, false)

	// mouse-over for info
	// show
	window.addEventListener("mouseover", function(e) {
		var target = find_group(e.target);
		if (target) details.nodeValue = "Function: " + g_to_text(target);
	}, false)

	// clear
	window.addEventListener("mouseout", function(e) {
		var target = find_group(e.target);
		if (target) details.nodeValue = ' ';
	}, false)

	// ctrl-F for search
	window.addEventListener("keydown",function (e) {
		if (e.keyCode === 114 || (e.ctrlKey && e.keyCode === 70)) {
			e.preventDefault();
			search_prompt();
		}
	}, false)

	// ctrl-I to toggle case-sensitive search
	window.addEventListener("keydown",function (e) {
		if (e.ctrlKey && e.keyCode === 73) {
			e.preventDefault();
			toggle_ignorecase();
		}
	}, false)

	// functions
	function find_child(node, selector) {
		var children = node.querySelectorAll(selector);
		if (children.length) return children[0];
		return;
	}
	function find_group(node) {
		var parent = node.parentElement;
		if (!parent) return;
		if (parent.id == "frames") return node;
		return find_group(parent);
	}
	function orig_save(e, attr, val) {
		if (e.attributes["_orig_" + attr] != undefined) return;
		if (e.attributes[attr] == undefined) return;
		if (val == undefined) val = e.attributes[attr].value;
		e.setAttribute("_orig_" + attr, val);
	}
	function orig_load(e, attr) {
		if (e.attributes["_orig_"+attr] == undefined) return;
		e.attributes[attr].value = e.attributes["_orig_" + attr].value;
		e.removeAttribute("_orig_"+attr);
	}
	function g_to_text(e) {
		var text = find_child(e, "title").firstChild.nodeValue;
		return (text)
	}
	function g_to_func(e) {
		var func = g_to_text(e);
		// if there's any manipulation we want to do to the function
		// name before it's searched, do it here before returning.
		return (func);
	}
	function update_text(e) {
		var r = find_child(e, "rect");
		var t = find_child(e, "text");
		var w = parseFloat(r.attributes.width.value) -3;
		var txt = find_child(e, "title").textContent.replace(/\([^(]*\)$/,"");
		t.attributes.x.value = parseFloat(r.attributes.x.value) + 3;

		// Smaller than this size won't fit anything
		if (w < 2 * 12 * 0.59) {
			t.textContent = "";
			return;
		}

		t.textContent = txt;
		// Fit in full text width
		if (/^ *$/.test(txt) || t.getSubStringLength(0, txt.length) < w)
			return;

		for (var x = txt.length - 2; x > 0; x--) {
			if (t.getSubStringLength(0, x + 2) <= w) {
				t.textContent = txt.substring(0, x) + "..";
				return;
			}
		}
		t.textContent = "";
	}

	// zoom
	function zoom_reset(e) {
		if (e.attributes != undefined) {
			orig_load(e, "x");
			orig_load(e, "width");
		}
		if (e.childNodes == undefined) return;
		for (var i = 0, c = e.childNodes; i < c.length; i++) {
			zoom_reset(c[i]);
		}
	}
	function zoom_child(e, x, ratio) {
		if (e.attributes != undefined) {
			if (e.attributes.x != undefined) {
				orig_save(e, "x");
				e.attributes.x.value = (parseFloat(e.attributes.x.value) - x - 10) * ratio + 10;
				if (e.tagName == "text")
					e.attributes.x.value = find_child(e.parentNode, "rect[x]").attributes.x.value + 3;
			}
			if (e.attributes.width != undefined) {
				orig_save(e, "width");
				e.attributes.width.value = parseFloat(e.attributes.width.value) * ratio;
			}
		}

		if (e.childNodes == undefined) return;
		for (var i = 0, c = e.childNodes; i < c.length; i++) {
			zoom_child(c[i], x - 10, ratio);
		}
	}
	function zoom_parent(e) {
		if (e.attributes) {
			if (e.attributes.x != undefined) {
				orig_save(e, "x");
				e.attributes.x.value = 10;
			}
			if (e.attributes.width != undefined) {
				orig_save(e, "width");
				e.attributes.width.value = parseInt(svg.width.baseVal.value) - (10 * 2);
			}
		}
		if (e.childNodes == undefined) return;
		for (var i = 0, c = e.childNodes; i < c.length; i++) {
			zoom_parent(c[i]);
		}
	}
	function zoom(node) {
		var attr = find_child(node, "rect").attributes;
		var width = parseFloat(attr.width.value);
		var xmin = parseFloat(attr.x.value);
		var xmax = parseFloat(xmin + width);
		var ymin = parseFloat(attr.y.value);
		var ratio = (svg.width.baseVal.value - 2 * 10) / width;

		// XXX: Workaround for JavaScript float issues (fix me)
		var fudge = 0.0001;

		unzoombtn.classList.remove("hide");

		var el = document.getElementById("frames").children;
		for (var i = 0; i < el.length; i++) {
			var e = el[i];
			var a = find_child(e, "rect").attributes;
			var ex = parseFloat(a.x.value);
			var ew = parseFloat(a.width.value);
			var upstack;
			// Is it an ancestor
			if (0 == 0) {
				upstack = parseFloat(a.y.value) > ymin;
			} else {
				upstack = parseFloat(a.y.value) < ymin;
			}
			if (upstack) {
				// Direct ancestor
				if (ex <= xmin && (ex+ew+fudge) >= xmax) {
					e.classList.add("parent");
					zoom_parent(e);
					update_text(e);
				}
				// not in current path
				else
					e.classList.add("hide");
			}
			// Children maybe
			else {
				// no common path
				if (ex < xmin || ex + fudge >= xmax) {
					e.classList.add("hide");
				}
				else {
					zoom_child(e, xmin, ratio);
					update_text(e);
				}
			}
		}
		search();
	}
	function unzoom() {
		unzoombtn.classList.add("hide");
		var el = document.getElementById("frames").children;
		for(var i = 0; i < el.length; i++) {
			el[i].classList.remove("parent");
			el[i].classList.remove("hide");
			zoom_reset(el[i]);
			update_text(el[i]);
		}
		search();
	}

	// search
	function toggle_ignorecase() {
		ignorecase = !ignorecase;
		if (ignorecase) {
			ignorecaseBtn.classList.add("show");
		} else {
			ignorecaseBtn.classList.remove("show");
		}
		reset_search();
		search();
	}
	function reset_search() {
		var el = document.querySelectorAll("#frames rect");
		for (var i = 0; i < el.length; i++) {
			orig_load(el[i], "fill")
		}
	}
	function search_prompt() {
		if (!searching) {
			var term = prompt("Enter a search term (regexp " +
			    "allowed, eg: ^ext4_)"
			    + (ignorecase ? ", ignoring case" : "")
			    + "\nPress Ctrl-i to toggle case sensitivity", "");
			if (term != null) {
				currentSearchTerm = term;
				search();
			}
		} else {
			reset_search();
			searching = 0;
			currentSearchTerm = null;
			searchbtn.classList.remove("show");
			searchbtn.firstChild.nodeValue = "Search"
			matchedtxt.classList.add("hide");
			matchedtxt.firstChild.nodeValue = ""
		}
	}
	function search(term) {
		if (currentSearchTerm === null) return;
		var term = currentSearchTerm;

		var re = new RegExp(term, ignorecase ? 'i' : '');
		var el = document.getElementById("frames").children;
		var matches = new Object();
		var maxwidth = 0;
		for (var i = 0; i < el.length; i++) {
			var e = el[i];
			var func = g_to_func(e);
			var rect = find_child(e, "rect");
			if (func == null || rect == null)
				continue;

			// Save max width. Only works as we have a root frame
			var w = parseFloat(rect.attributes.width.value);
			if (w > maxwidth)
				maxwidth = w;

			if (func.match(re)) {
				// highlight
				var x = parseFloat(rect.attributes.x.value);
				orig_save(rect, "fill");
				rect.attributes.fill.value = "rgb(230,0,230)";

				// remember matches
				if (matches[x] == undefined) {
					matches[x] = w;
				} else {
					if (w > matches[x]) {
						// overwrite with parent
						matches[x] = w;
					}
				}
				searching = 1;
			}
		}
		if (!searching)
			return;

		searchbtn.classList.add("show");
		searchbtn.firstChild.nodeValue = "Reset Search";

		// calculate percent matched, excluding vertical overlap
		var count = 0;
		var lastx = -1;
		var lastw = 0;
		var keys = Array();
		for (k in matches) {
			if (matches.hasOwnProperty(k))
				keys.push(k);
		}
		// sort the matched frames by their x location
		// ascending, then width descending
		keys.sort(function(a, b){
			return a - b;
		});
		// Step through frames saving only the biggest bottom-up frames
		// thanks to the sort order. This relies on the tree property
		// where children are always smaller than their parents.
		var fudge = 0.0001;	// JavaScript floating point
		for (var k in keys) {
			var x = parseFloat(keys[k]);
			var w = matches[keys[k]];
			if (x >= lastx + lastw - fudge) {
				count += w;
				lastx = x;
				lastw = w;
			}
		}
		// display matched percent
		matchedtxt.classList.remove("hide");
		var pct = 100 * count / maxwidth;
		if (pct != 100) pct = pct.toFixed(1)
		matchedtxt.firstChild.nodeValue = "Matched: " + pct + "%";
	}
]]>
</script>
<rect x="0.0" y="0" width="1200.0" height="454.0" fill="url(#background)"  />
<text id="title" x="600.00" y="24" >Flame Graph</text>
<text id="details" x="10.00" y="437" > </text>
<text id="unzoom" x="10.00" y="24" class="hide">Reset Zoom</text>
<text id="search" x="1090.00" y="24" >Search</text>
<text id="ignorecase" x="1174.00" y="24" >ic</text>
<text id="matched" x="1090.00" y="437" > </text>
<g id="frames">
<g >
<title>[[kernel.kallsyms]] (5 samples, 0.38%)</title><rect x="1136.8" y="229" width="4.5" height="15.0" fill="rgb(225,153,11)" rx="2" ry="2" />
<text  x="1139.81" y="239.5" ></text>
</g>
<g >
<title>__strtok_r (5 samples, 0.38%)</title><rect x="541.9" y="373" width="4.5" height="15.0" fill="rgb(218,8,18)" rx="2" ry="2" />
<text  x="544.86" y="383.5" ></text>
</g>
<g >
<title>[[kernel.kallsyms]] (2 samples, 0.15%)</title><rect x="231.8" y="197" width="1.8" height="15.0" fill="rgb(225,197,20)" rx="2" ry="2" />
<text  x="234.76" y="207.5" ></text>
</g>
<g >
<title>[[kernel.kallsyms]] (16 samples, 1.22%)</title><rect x="1168.4" y="309" width="14.4" height="15.0" fill="rgb(235,116,30)" rx="2" ry="2" />
<text  x="1171.37" y="319.5" ></text>
</g>
<g >
<title>[[kernel.kallsyms]] (3 samples, 0.23%)</title><rect x="433.7" y="117" width="2.7" height="15.0" fill="rgb(215,217,24)" rx="2" ry="2" />
<text  x="436.68" y="127.5" ></text>
</g>
<g >
<title>[[kernel.kallsyms]] (5 samples, 0.38%)</title><rect x="1185.5" y="149" width="4.5" height="15.0" fill="rgb(221,96,30)" rx="2" ry="2" />
<text  x="1188.49" y="159.5" ></text>
</g>
<g >
<title>__strtok_r (34 samples, 2.60%)</title><rect x="154.2" y="341" width="30.7" height="15.0" fill="rgb(223,198,13)" rx="2" ry="2" />
<text  x="157.23" y="351.5" >__..</text>
</g>
<g >
<title>[[kernel.kallsyms]] (16 samples, 1.22%)</title><rect x="1168.4" y="357" width="14.4" height="15.0" fill="rgb(246,66,17)" rx="2" ry="2" />
<text  x="1171.37" y="367.5" ></text>
</g>
<g >
<title>__mpn_construct_double (11 samples, 0.84%)</title><rect x="352.6" y="357" width="9.9" height="15.0" fill="rgb(209,132,21)" rx="2" ry="2" />
<text  x="355.55" y="367.5" ></text>
</g>
<g >
<title>[[kernel.kallsyms]] (4 samples, 0.31%)</title><rect x="82.1" y="197" width="3.6" height="15.0" fill="rgb(235,207,32)" rx="2" ry="2" />
<text  x="85.12" y="207.5" ></text>
</g>
<g >
<title>ReadSet (88 samples, 6.72%)</title><rect x="10.9" y="373" width="79.3" height="15.0" fill="rgb(236,117,3)" rx="2" ry="2" />
<text  x="13.90" y="383.5" >ReadSet</text>
</g>
<g >
<title>[[kernel.kallsyms]] (5 samples, 0.38%)</title><rect x="336.3" y="261" width="4.5" height="15.0" fill="rgb(219,76,12)" rx="2" ry="2" />
<text  x="339.33" y="271.5" ></text>
</g>
<g >
<title>[[kernel.kallsyms]] (12 samples, 0.92%)</title><rect x="74.9" y="229" width="10.8" height="15.0" fill="rgb(242,182,40)" rx="2" ry="2" />
<text  x="77.90" y="239.5" ></text>
</g>
<g >
<title>[[kernel.kallsyms]] (2 samples, 0.15%)</title><rect x="434.6" y="85" width="1.8" height="15.0" fill="rgb(210,38,50)" rx="2" ry="2" />
<text  x="437.58" y="95.5" ></text>
</g>
<g >
<title>[[kernel.kallsyms]] (4 samples, 0.31%)</title><rect x="337.2" y="229" width="3.6" height="15.0" fill="rgb(249,222,46)" rx="2" ry="2" />
<text  x="340.23" y="239.5" ></text>
</g>
<g >
<title>[[kernel.kallsyms]] (9 samples, 0.69%)</title><rect x="428.3" y="325" width="8.1" height="15.0" fill="rgb(231,18,18)" rx="2" ry="2" />
<text  x="431.27" y="335.5" ></text>
</g>
<g >
<title>[[kernel.kallsyms]] (3 samples, 0.23%)</title><rect x="338.1" y="181" width="2.7" height="15.0" fill="rgb(248,222,9)" rx="2" ry="2" />
<text  x="341.13" y="191.5" ></text>
</g>
<g >
<title>[[kernel.kallsyms]] (5 samples, 0.38%)</title><rect x="1136.8" y="213" width="4.5" height="15.0" fill="rgb(207,93,46)" rx="2" ry="2" />
<text  x="1139.81" y="223.5" ></text>
</g>
<g >
<title>[[kernel.kallsyms]] (2 samples, 0.15%)</title><rect x="231.8" y="213" width="1.8" height="15.0" fill="rgb(239,151,54)" rx="2" ry="2" />
<text  x="234.76" y="223.5" ></text>
</g>
<g >
<title>[[kernel.kallsyms]] (2 samples, 0.15%)</title><rect x="94.7" y="213" width="1.8" height="15.0" fill="rgb(206,134,30)" rx="2" ry="2" />
<text  x="97.74" y="223.5" ></text>
</g>
<g >
<title>[[kernel.kallsyms]] (8 samples, 0.61%)</title><rect x="429.2" y="229" width="7.2" height="15.0" fill="rgb(212,33,20)" rx="2" ry="2" />
<text  x="432.17" y="239.5" ></text>
</g>
<g >
<title>[[kernel.kallsyms]] (6 samples, 0.46%)</title><rect x="1177.4" y="85" width="5.4" height="15.0" fill="rgb(231,166,35)" rx="2" ry="2" />
<text  x="1180.38" y="95.5" ></text>
</g>
<g >
<title>_IO_fgets (4 samples, 0.31%)</title><rect x="395.8" y="373" width="3.6" height="15.0" fill="rgb(246,174,6)" rx="2" ry="2" />
<text  x="398.82" y="383.5" ></text>
</g>
<g >
<title>[[kernel.kallsyms]] (4 samples, 0.31%)</title><rect x="230.0" y="309" width="3.6" height="15.0" fill="rgb(217,142,48)" rx="2" ry="2" />
<text  x="232.95" y="319.5" ></text>
</g>
<g >
<title>[[kernel.kallsyms]] (16 samples, 1.22%)</title><rect x="1168.4" y="293" width="14.4" height="15.0" fill="rgb(235,190,9)" rx="2" ry="2" />
<text  x="1171.37" y="303.5" ></text>
</g>
<g >
<title>[[kernel.kallsyms]] (5 samples, 0.38%)</title><rect x="519.3" y="245" width="4.5" height="15.0" fill="rgb(207,0,12)" rx="2" ry="2" />
<text  x="522.32" y="255.5" ></text>
</g>
<g >
<title>[[kernel.kallsyms]] (2 samples, 0.15%)</title><rect x="231.8" y="229" width="1.8" height="15.0" fill="rgb(222,68,49)" rx="2" ry="2" />
<text  x="234.76" y="239.5" ></text>
</g>
<g >
<title>[[kernel.kallsyms]] (2 samples, 0.15%)</title><rect x="94.7" y="277" width="1.8" height="15.0" fill="rgb(238,155,12)" rx="2" ry="2" />
<text  x="97.74" y="287.5" ></text>
</g>
<g >
<title>[[kernel.kallsyms]] (1 samples, 0.08%)</title><rect x="84.8" y="53" width="0.9" height="15.0" fill="rgb(212,186,29)" rx="2" ry="2" />
<text  x="87.82" y="63.5" ></text>
</g>
<g >
<title>[[kernel.kallsyms]] (2 samples, 0.15%)</title><rect x="1188.2" y="53" width="1.8" height="15.0" fill="rgb(216,11,41)" rx="2" ry="2" />
<text  x="1191.20" y="63.5" ></text>
</g>
<g >
<title>[[kernel.kallsyms]] (1 samples, 0.08%)</title><rect x="84.8" y="117" width="0.9" height="15.0" fill="rgb(213,125,29)" rx="2" ry="2" />
<text  x="87.82" y="127.5" ></text>
</g>
<g >
<title>[[kernel.kallsyms]] (16 samples, 1.22%)</title><rect x="1168.4" y="325" width="14.4" height="15.0" fill="rgb(254,8,52)" rx="2" ry="2" />
<text  x="1171.37" y="335.5" ></text>
</g>
<g >
<title>[[kernel.kallsyms]] (3 samples, 0.23%)</title><rect x="1187.3" y="85" width="2.7" height="15.0" fill="rgb(228,17,9)" rx="2" ry="2" />
<text  x="1190.30" y="95.5" ></text>
</g>
<g >
<title>[[kernel.kallsyms]] (5 samples, 0.38%)</title><rect x="1185.5" y="133" width="4.5" height="15.0" fill="rgb(228,19,48)" rx="2" ry="2" />
<text  x="1188.49" y="143.5" ></text>
</g>
<g >
<title>dbl_cmp (328 samples, 25.06%)</title><rect x="546.4" y="373" width="295.6" height="15.0" fill="rgb(254,5,48)" rx="2" ry="2" />
<text  x="549.36" y="383.5" >dbl_cmp</text>
</g>
<g >
<title>[[kernel.kallsyms]] (1 samples, 0.08%)</title><rect x="84.8" y="85" width="0.9" height="15.0" fill="rgb(236,56,23)" rx="2" ry="2" />
<text  x="87.82" y="95.5" ></text>
</g>
<g >
<title>[[kernel.kallsyms]] (4 samples, 0.31%)</title><rect x="520.2" y="213" width="3.6" height="15.0" fill="rgb(249,161,45)" rx="2" ry="2" />
<text  x="523.22" y="223.5" ></text>
</g>
<g >
<title>[[kernel.kallsyms]] (1 samples, 0.08%)</title><rect x="84.8" y="165" width="0.9" height="15.0" fill="rgb(237,144,48)" rx="2" ry="2" />
<text  x="87.82" y="175.5" ></text>
</g>
<g >
<title>__memmove_avx_unaligned_erms (5 samples, 0.38%)</title><rect x="85.7" y="357" width="4.5" height="15.0" fill="rgb(209,149,10)" rx="2" ry="2" />
<text  x="88.72" y="367.5" ></text>
</g>
<g >
<title>strtod (5 samples, 0.38%)</title><rect x="1162.1" y="373" width="4.5" height="15.0" fill="rgb(209,118,13)" rx="2" ry="2" />
<text  x="1165.06" y="383.5" ></text>
</g>
<g >
<title>[[kernel.kallsyms]] (8 samples, 0.61%)</title><rect x="1182.8" y="245" width="7.2" height="15.0" fill="rgb(244,91,39)" rx="2" ry="2" />
<text  x="1185.79" y="255.5" ></text>
</g>
<g >
<title>[[kernel.kallsyms]] (9 samples, 0.69%)</title><rect x="428.3" y="357" width="8.1" height="15.0" fill="rgb(233,220,20)" rx="2" ry="2" />
<text  x="431.27" y="367.5" ></text>
</g>
<g >
<title>[[kernel.kallsyms]] (6 samples, 0.46%)</title><rect x="1135.9" y="293" width="5.4" height="15.0" fill="rgb(219,149,33)" rx="2" ry="2" />
<text  x="1138.91" y="303.5" ></text>
</g>
<g >
<title>[[kernel.kallsyms]] (1 samples, 0.08%)</title><rect x="153.3" y="277" width="0.9" height="15.0" fill="rgb(212,22,40)" rx="2" ry="2" />
<text  x="156.33" y="287.5" ></text>
</g>
<g >
<title>[[kernel.kallsyms]] (2 samples, 0.15%)</title><rect x="434.6" y="69" width="1.8" height="15.0" fill="rgb(212,69,41)" rx="2" ry="2" />
<text  x="437.58" y="79.5" ></text>
</g>
<g >
<title>[[kernel.kallsyms]] (2 samples, 0.15%)</title><rect x="231.8" y="245" width="1.8" height="15.0" fill="rgb(212,141,18)" rx="2" ry="2" />
<text  x="234.76" y="255.5" ></text>
</g>
<g >
<title>[[kernel.kallsyms]] (20 samples, 1.53%)</title><rect x="67.7" y="341" width="18.0" height="15.0" fill="rgb(211,153,40)" rx="2" ry="2" />
<text  x="70.69" y="351.5" ></text>
</g>
<g >
<title>[[kernel.kallsyms]] (16 samples, 1.22%)</title><rect x="71.3" y="325" width="14.4" height="15.0" fill="rgb(213,10,34)" rx="2" ry="2" />
<text  x="74.30" y="335.5" ></text>
</g>
<g >
<title>[[kernel.kallsyms]] (9 samples, 0.69%)</title><rect x="428.3" y="309" width="8.1" height="15.0" fill="rgb(235,186,12)" rx="2" ry="2" />
<text  x="431.27" y="319.5" ></text>
</g>
<g >
<title>[[kernel.kallsyms]] (13 samples, 0.99%)</title><rect x="74.0" y="277" width="11.7" height="15.0" fill="rgb(254,83,10)" rx="2" ry="2" />
<text  x="77.00" y="287.5" ></text>
</g>
<g >
<title>[[kernel.kallsyms]] (3 samples, 0.23%)</title><rect x="433.7" y="149" width="2.7" height="15.0" fill="rgb(239,135,41)" rx="2" ry="2" />
<text  x="436.68" y="159.5" ></text>
</g>
<g >
<title>__GI_____strtod_l_internal (57 samples, 4.35%)</title><rect x="253.4" y="357" width="51.4" height="15.0" fill="rgb(253,54,3)" rx="2" ry="2" />
<text  x="256.39" y="367.5" >__GI_..</text>
</g>
<g >
<title>[[kernel.kallsyms]] (13 samples, 0.99%)</title><rect x="74.0" y="261" width="11.7" height="15.0" fill="rgb(210,86,1)" rx="2" ry="2" />
<text  x="77.00" y="271.5" ></text>
</g>
<g >
<title>__mpn_lshift (12 samples, 0.92%)</title><rect x="523.8" y="373" width="10.8" height="15.0" fill="rgb(246,132,38)" rx="2" ry="2" />
<text  x="526.83" y="383.5" ></text>
</g>
<g >
<title>[[kernel.kallsyms]] (6 samples, 0.46%)</title><rect x="335.4" y="293" width="5.4" height="15.0" fill="rgb(232,78,38)" rx="2" ry="2" />
<text  x="338.42" y="303.5" ></text>
</g>
<g >
<title>[[kernel.kallsyms]] (5 samples, 0.38%)</title><rect x="1131.4" y="213" width="4.5" height="15.0" fill="rgb(254,16,3)" rx="2" ry="2" />
<text  x="1134.41" y="223.5" ></text>
</g>
<g >
<title>[[kernel.kallsyms]] (8 samples, 0.61%)</title><rect x="1182.8" y="213" width="7.2" height="15.0" fill="rgb(220,111,5)" rx="2" ry="2" />
<text  x="1185.79" y="223.5" ></text>
</g>
<g >
<title>[[kernel.kallsyms]] (5 samples, 0.38%)</title><rect x="519.3" y="293" width="4.5" height="15.0" fill="rgb(223,65,6)" rx="2" ry="2" />
<text  x="522.32" y="303.5" ></text>
</g>
<g >
<title>[[kernel.kallsyms]] (10 samples, 0.76%)</title><rect x="1173.8" y="165" width="9.0" height="15.0" fill="rgb(254,38,42)" rx="2" ry="2" />
<text  x="1176.77" y="175.5" ></text>
</g>
<g >
<title>[[kernel.kallsyms]] (1 samples, 0.08%)</title><rect x="95.6" y="165" width="0.9" height="15.0" fill="rgb(229,103,54)" rx="2" ry="2" />
<text  x="98.64" y="175.5" ></text>
</g>
<g >
<title>[[kernel.kallsyms]] (9 samples, 0.69%)</title><rect x="428.3" y="341" width="8.1" height="15.0" fill="rgb(226,125,20)" rx="2" ry="2" />
<text  x="431.27" y="351.5" ></text>
</g>
<g >
<title>[[kernel.kallsyms]] (16 samples, 1.22%)</title><rect x="1168.4" y="277" width="14.4" height="15.0" fill="rgb(247,94,3)" rx="2" ry="2" />
<text  x="1171.37" y="287.5" ></text>
</g>
<g >
<title>[[kernel.kallsyms]] (2 samples, 0.15%)</title><rect x="94.7" y="309" width="1.8" height="15.0" fill="rgb(227,184,28)" rx="2" ry="2" />
<text  x="97.74" y="319.5" ></text>
</g>
<g >
<title>[[kernel.kallsyms]] (2 samples, 0.15%)</title><rect x="1188.2" y="69" width="1.8" height="15.0" fill="rgb(205,223,8)" rx="2" ry="2" />
<text  x="1191.20" y="79.5" ></text>
</g>
<g >
<title>[[kernel.kallsyms]] (8 samples, 0.61%)</title><rect x="1128.7" y="229" width="7.2" height="15.0" fill="rgb(254,80,29)" rx="2" ry="2" />
<text  x="1131.70" y="239.5" ></text>
</g>
<g >
<title>[[kernel.kallsyms]] (8 samples, 0.61%)</title><rect x="1182.8" y="357" width="7.2" height="15.0" fill="rgb(233,185,16)" rx="2" ry="2" />
<text  x="1185.79" y="367.5" ></text>
</g>
<g >
<title>[[kernel.kallsyms]] (24 samples, 1.83%)</title><rect x="64.1" y="357" width="21.6" height="15.0" fill="rgb(231,135,13)" rx="2" ry="2" />
<text  x="67.09" y="367.5" >[..</text>
</g>
<g >
<title>[[kernel.kallsyms]] (6 samples, 0.46%)</title><rect x="1177.4" y="69" width="5.4" height="15.0" fill="rgb(215,11,40)" rx="2" ry="2" />
<text  x="1180.38" y="79.5" ></text>
</g>
<g >
<title>[[kernel.kallsyms]] (8 samples, 0.61%)</title><rect x="1182.8" y="341" width="7.2" height="15.0" fill="rgb(208,134,25)" rx="2" ry="2" />
<text  x="1185.79" y="351.5" ></text>
</g>
<g >
<title>[[kernel.kallsyms]] (1 samples, 0.08%)</title><rect x="232.7" y="165" width="0.9" height="15.0" fill="rgb(251,208,19)" rx="2" ry="2" />
<text  x="235.66" y="175.5" ></text>
</g>
<g >
<title>[[kernel.kallsyms]] (10 samples, 0.76%)</title><rect x="1126.9" y="293" width="9.0" height="15.0" fill="rgb(219,172,44)" rx="2" ry="2" />
<text  x="1129.90" y="303.5" ></text>
</g>
<g >
<title>[[kernel.kallsyms]] (1 samples, 0.08%)</title><rect x="84.8" y="149" width="0.9" height="15.0" fill="rgb(223,216,7)" rx="2" ry="2" />
<text  x="87.82" y="159.5" ></text>
</g>
<g >
<title>[[kernel.kallsyms]] (2 samples, 0.15%)</title><rect x="1188.2" y="37" width="1.8" height="15.0" fill="rgb(230,212,50)" rx="2" ry="2" />
<text  x="1191.20" y="47.5" ></text>
</g>
<g >
<title>[[kernel.kallsyms]] (1 samples, 0.08%)</title><rect x="95.6" y="133" width="0.9" height="15.0" fill="rgb(210,134,17)" rx="2" ry="2" />
<text  x="98.64" y="143.5" ></text>
</g>
<g >
<title>[[kernel.kallsyms]] (2 samples, 0.15%)</title><rect x="94.7" y="229" width="1.8" height="15.0" fill="rgb(205,205,11)" rx="2" ry="2" />
<text  x="97.74" y="239.5" ></text>
</g>
<g >
<title>[[kernel.kallsyms]] (104 samples, 7.94%)</title><rect x="91.1" y="357" width="93.8" height="15.0" fill="rgb(222,108,47)" rx="2" ry="2" />
<text  x="94.13" y="367.5" >[[kernel.ka..</text>
</g>
<g >
<title>[[kernel.kallsyms]] (10 samples, 0.76%)</title><rect x="1173.8" y="149" width="9.0" height="15.0" fill="rgb(242,62,29)" rx="2" ry="2" />
<text  x="1176.77" y="159.5" ></text>
</g>
<g >
<title>[[kernel.kallsyms]] (9 samples, 0.69%)</title><rect x="428.3" y="261" width="8.1" height="15.0" fill="rgb(216,46,49)" rx="2" ry="2" />
<text  x="431.27" y="271.5" ></text>
</g>
<g >
<title>[[kernel.kallsyms]] (2 samples, 0.15%)</title><rect x="339.0" y="165" width="1.8" height="15.0" fill="rgb(226,75,15)" rx="2" ry="2" />
<text  x="342.03" y="175.5" ></text>
</g>
<g >
<title>[[kernel.kallsyms]] (1 samples, 0.08%)</title><rect x="841.1" y="341" width="0.9" height="15.0" fill="rgb(213,114,8)" rx="2" ry="2" />
<text  x="844.14" y="351.5" ></text>
</g>
<g >
<title>[[kernel.kallsyms]] (2 samples, 0.15%)</title><rect x="94.7" y="293" width="1.8" height="15.0" fill="rgb(218,8,2)" rx="2" ry="2" />
<text  x="97.74" y="303.5" ></text>
</g>
<g >
<title>[[kernel.kallsyms]] (4 samples, 0.31%)</title><rect x="337.2" y="245" width="3.6" height="15.0" fill="rgb(254,183,39)" rx="2" ry="2" />
<text  x="340.23" y="255.5" ></text>
</g>
<g >
<title>[[kernel.kallsyms]] (9 samples, 0.69%)</title><rect x="1127.8" y="261" width="8.1" height="15.0" fill="rgb(216,196,39)" rx="2" ry="2" />
<text  x="1130.80" y="271.5" ></text>
</g>
<g >
<title>[[kernel.kallsyms]] (8 samples, 0.61%)</title><rect x="429.2" y="197" width="7.2" height="15.0" fill="rgb(222,52,18)" rx="2" ry="2" />
<text  x="432.17" y="207.5" ></text>
</g>
<g >
<title>[[kernel.kallsyms]] (4 samples, 0.31%)</title><rect x="1186.4" y="117" width="3.6" height="15.0" fill="rgb(245,98,43)" rx="2" ry="2" />
<text  x="1189.39" y="127.5" ></text>
</g>
<g >
<title>[[kernel.kallsyms]] (16 samples, 1.22%)</title><rect x="1168.4" y="213" width="14.4" height="15.0" fill="rgb(217,111,46)" rx="2" ry="2" />
<text  x="1171.37" y="223.5" ></text>
</g>
<g >
<title>[[kernel.kallsyms]] (3 samples, 0.23%)</title><rect x="83.0" y="181" width="2.7" height="15.0" fill="rgb(207,43,19)" rx="2" ry="2" />
<text  x="86.02" y="191.5" ></text>
</g>
<g >
<title>perf (8 samples, 0.61%)</title><rect x="1182.8" y="389" width="7.2" height="15.0" fill="rgb(212,20,39)" rx="2" ry="2" />
<text  x="1185.79" y="399.5" ></text>
</g>
<g >
<title>round_and_return (22 samples, 1.68%)</title><rect x="362.5" y="357" width="19.8" height="15.0" fill="rgb(234,141,0)" rx="2" ry="2" />
<text  x="365.47" y="367.5" ></text>
</g>
<g >
<title>[[kernel.kallsyms]] (16 samples, 1.22%)</title><rect x="1168.4" y="341" width="14.4" height="15.0" fill="rgb(243,66,49)" rx="2" ry="2" />
<text  x="1171.37" y="351.5" ></text>
</g>
<g >
<title>[[kernel.kallsyms]] (16 samples, 1.22%)</title><rect x="1168.4" y="229" width="14.4" height="15.0" fill="rgb(223,69,4)" rx="2" ry="2" />
<text  x="1171.37" y="239.5" ></text>
</g>
<g >
<title>__strspn_sse42 (39 samples, 2.98%)</title><rect x="119.1" y="341" width="35.1" height="15.0" fill="rgb(241,111,35)" rx="2" ry="2" />
<text  x="122.08" y="351.5" >__..</text>
</g>
<g >
<title>[[kernel.kallsyms]] (6 samples, 0.46%)</title><rect x="335.4" y="277" width="5.4" height="15.0" fill="rgb(215,25,3)" rx="2" ry="2" />
<text  x="338.42" y="287.5" ></text>
</g>
<g >
<title>[[kernel.kallsyms]] (8 samples, 0.61%)</title><rect x="1128.7" y="245" width="7.2" height="15.0" fill="rgb(224,52,49)" rx="2" ry="2" />
<text  x="1131.70" y="255.5" ></text>
</g>
<g >
<title>[[kernel.kallsyms]] (5 samples, 0.38%)</title><rect x="519.3" y="261" width="4.5" height="15.0" fill="rgb(206,58,39)" rx="2" ry="2" />
<text  x="522.32" y="271.5" ></text>
</g>
<g >
<title>[[kernel.kallsyms]] (9 samples, 0.69%)</title><rect x="428.3" y="245" width="8.1" height="15.0" fill="rgb(214,190,35)" rx="2" ry="2" />
<text  x="431.27" y="255.5" ></text>
</g>
<g >
<title>_IO_fgets (54 samples, 4.13%)</title><rect x="184.9" y="357" width="48.7" height="15.0" fill="rgb(253,91,26)" rx="2" ry="2" />
<text  x="187.88" y="367.5" >_IO_..</text>
</g>
<g >
<title>[[kernel.kallsyms]] (6 samples, 0.46%)</title><rect x="1177.4" y="101" width="5.4" height="15.0" fill="rgb(219,41,31)" rx="2" ry="2" />
<text  x="1180.38" y="111.5" ></text>
</g>
<g >
<title>[[kernel.kallsyms]] (7 samples, 0.53%)</title><rect x="517.5" y="341" width="6.3" height="15.0" fill="rgb(218,175,54)" rx="2" ry="2" />
<text  x="520.52" y="351.5" ></text>
</g>
<g >
<title>[[kernel.kallsyms]] (7 samples, 0.53%)</title><rect x="1183.7" y="181" width="6.3" height="15.0" fill="rgb(221,222,7)" rx="2" ry="2" />
<text  x="1186.69" y="191.5" ></text>
</g>
<g >
<title>str_to_mpn.isra.0 (15 samples, 1.15%)</title><rect x="382.3" y="357" width="13.5" height="15.0" fill="rgb(241,52,43)" rx="2" ry="2" />
<text  x="385.30" y="367.5" ></text>
</g>
<g >
<title>[[kernel.kallsyms]] (1 samples, 0.08%)</title><rect x="84.8" y="133" width="0.9" height="15.0" fill="rgb(213,118,28)" rx="2" ry="2" />
<text  x="87.82" y="143.5" ></text>
</g>
<g >
<title>[[kernel.kallsyms]] (4 samples, 0.31%)</title><rect x="337.2" y="213" width="3.6" height="15.0" fill="rgb(225,120,26)" rx="2" ry="2" />
<text  x="340.23" y="223.5" ></text>
</g>
<g >
<title>[[kernel.kallsyms]] (9 samples, 0.69%)</title><rect x="428.3" y="277" width="8.1" height="15.0" fill="rgb(249,3,14)" rx="2" ry="2" />
<text  x="431.27" y="287.5" ></text>
</g>
<g >
<title>[[kernel.kallsyms]] (2 samples, 0.15%)</title><rect x="94.7" y="341" width="1.8" height="15.0" fill="rgb(227,60,53)" rx="2" ry="2" />
<text  x="97.74" y="351.5" ></text>
</g>
<g >
<title>[[kernel.kallsyms]] (1 samples, 0.08%)</title><rect x="841.1" y="309" width="0.9" height="15.0" fill="rgb(209,47,51)" rx="2" ry="2" />
<text  x="844.14" y="319.5" ></text>
</g>
<g >
<title>fgets@plt (2 samples, 0.15%)</title><rect x="842.0" y="373" width="1.8" height="15.0" fill="rgb(227,4,26)" rx="2" ry="2" />
<text  x="845.04" y="383.5" ></text>
</g>
<g >
<title>[[kernel.kallsyms]] (1 samples, 0.08%)</title><rect x="95.6" y="149" width="0.9" height="15.0" fill="rgb(253,96,31)" rx="2" ry="2" />
<text  x="98.64" y="159.5" ></text>
</g>
<g >
<title>[[kernel.kallsyms]] (8 samples, 0.61%)</title><rect x="1182.8" y="229" width="7.2" height="15.0" fill="rgb(250,132,7)" rx="2" ry="2" />
<text  x="1185.79" y="239.5" ></text>
</g>
<g >
<title>[[kernel.kallsyms]] (15 samples, 1.15%)</title><rect x="1169.3" y="197" width="13.5" height="15.0" fill="rgb(215,54,32)" rx="2" ry="2" />
<text  x="1172.27" y="207.5" ></text>
</g>
<g >
<title>[[kernel.kallsyms]] (10 samples, 0.76%)</title><rect x="1173.8" y="133" width="9.0" height="15.0" fill="rgb(251,32,20)" rx="2" ry="2" />
<text  x="1176.77" y="143.5" ></text>
</g>
<g >
<title>[[kernel.kallsyms]] (5 samples, 0.38%)</title><rect x="519.3" y="277" width="4.5" height="15.0" fill="rgb(249,141,38)" rx="2" ry="2" />
<text  x="522.32" y="287.5" ></text>
</g>
<g >
<title>[[kernel.kallsyms]] (13 samples, 0.99%)</title><rect x="74.0" y="245" width="11.7" height="15.0" fill="rgb(208,2,26)" rx="2" ry="2" />
<text  x="77.00" y="255.5" ></text>
</g>
<g >
<title>strtok (1 samples, 0.08%)</title><rect x="1166.6" y="373" width="0.9" height="15.0" fill="rgb(213,202,13)" rx="2" ry="2" />
<text  x="1169.56" y="383.5" ></text>
</g>
<g >
<title>[[kernel.kallsyms]] (6 samples, 0.46%)</title><rect x="1135.9" y="341" width="5.4" height="15.0" fill="rgb(214,82,31)" rx="2" ry="2" />
<text  x="1138.91" y="351.5" ></text>
</g>
<g >
<title>[[kernel.kallsyms]] (2 samples, 0.15%)</title><rect x="94.7" y="181" width="1.8" height="15.0" fill="rgb(226,228,25)" rx="2" ry="2" />
<text  x="97.74" y="191.5" ></text>
</g>
<g >
<title>[[kernel.kallsyms]] (1 samples, 0.08%)</title><rect x="339.9" y="149" width="0.9" height="15.0" fill="rgb(238,0,27)" rx="2" ry="2" />
<text  x="342.93" y="159.5" ></text>
</g>
<g >
<title>[[kernel.kallsyms]] (6 samples, 0.46%)</title><rect x="431.0" y="181" width="5.4" height="15.0" fill="rgb(241,60,54)" rx="2" ry="2" />
<text  x="433.98" y="191.5" ></text>
</g>
<g >
<title>[[kernel.kallsyms]] (339 samples, 25.90%)</title><rect x="90.2" y="373" width="305.6" height="15.0" fill="rgb(242,151,45)" rx="2" ry="2" />
<text  x="93.23" y="383.5" >[[kernel.kallsyms]]</text>
</g>
<g >
<title>[[kernel.kallsyms]] (1 samples, 0.08%)</title><rect x="339.9" y="117" width="0.9" height="15.0" fill="rgb(223,5,33)" rx="2" ry="2" />
<text  x="342.93" y="127.5" ></text>
</g>
<g >
<title>all (1,309 samples, 100%)</title><rect x="10.0" y="405" width="1180.0" height="15.0" fill="rgb(235,190,4)" rx="2" ry="2" />
<text  x="13.00" y="415.5" ></text>
</g>
<g >
<title>[[kernel.kallsyms]] (5 samples, 0.38%)</title><rect x="1136.8" y="261" width="4.5" height="15.0" fill="rgb(229,153,17)" rx="2" ry="2" />
<text  x="1139.81" y="271.5" ></text>
</g>
<g >
<title>__GI_____strtod_l_internal (41 samples, 3.13%)</title><rect x="399.4" y="373" width="37.0" height="15.0" fill="rgb(250,222,0)" rx="2" ry="2" />
<text  x="402.43" y="383.5" >__G..</text>
</g>
<g >
<title>read (6 samples, 0.46%)</title><rect x="1135.9" y="373" width="5.4" height="15.0" fill="rgb(247,13,22)" rx="2" ry="2" />
<text  x="1138.91" y="383.5" ></text>
</g>
<g >
<title>[[kernel.kallsyms]] (5 samples, 0.38%)</title><rect x="519.3" y="325" width="4.5" height="15.0" fill="rgb(223,164,9)" rx="2" ry="2" />
<text  x="522.32" y="335.5" ></text>
</g>
<g >
<title>[[kernel.kallsyms]] (1 samples, 0.08%)</title><rect x="339.9" y="133" width="0.9" height="15.0" fill="rgb(252,45,19)" rx="2" ry="2" />
<text  x="342.93" y="143.5" ></text>
</g>
<g >
<title>[[kernel.kallsyms]] (1 samples, 0.08%)</title><rect x="841.1" y="325" width="0.9" height="15.0" fill="rgb(218,84,38)" rx="2" ry="2" />
<text  x="844.14" y="335.5" ></text>
</g>
<g >
<title>ministat (1,301 samples, 99.39%)</title><rect x="10.0" y="389" width="1172.8" height="15.0" fill="rgb(250,163,37)" rx="2" ry="2" />
<text  x="13.00" y="399.5" >ministat</text>
</g>
<g >
<title>@plt (1 samples, 0.08%)</title><rect x="10.0" y="373" width="0.9" height="15.0" fill="rgb(244,25,21)" rx="2" ry="2" />
<text  x="13.00" y="383.5" ></text>
</g>
<g >
<title>msort_with_tmp.part.0 (324 samples, 24.75%)</title><rect x="843.8" y="373" width="292.1" height="15.0" fill="rgb(216,88,52)" rx="2" ry="2" />
<text  x="846.84" y="383.5" >msort_with_tmp.part.0</text>
</g>
<g >
<title>[[kernel.kallsyms]] (8 samples, 0.61%)</title><rect x="1182.8" y="373" width="7.2" height="15.0" fill="rgb(227,20,5)" rx="2" ry="2" />
<text  x="1185.79" y="383.5" ></text>
</g>
<g >
<title>[[kernel.kallsyms]] (4 samples, 0.31%)</title><rect x="230.0" y="325" width="3.6" height="15.0" fill="rgb(245,185,13)" rx="2" ry="2" />
<text  x="232.95" y="335.5" ></text>
</g>
<g >
<title>[[kernel.kallsyms]] (9 samples, 0.69%)</title><rect x="1174.7" y="117" width="8.1" height="15.0" fill="rgb(220,150,46)" rx="2" ry="2" />
<text  x="1177.68" y="127.5" ></text>
</g>
<g >
<title>[[kernel.kallsyms]] (9 samples, 0.69%)</title><rect x="428.3" y="293" width="8.1" height="15.0" fill="rgb(240,182,53)" rx="2" ry="2" />
<text  x="431.27" y="303.5" ></text>
</g>
<g >
<title>[[kernel.kallsyms]] (8 samples, 0.61%)</title><rect x="1182.8" y="277" width="7.2" height="15.0" fill="rgb(233,31,20)" rx="2" ry="2" />
<text  x="1185.79" y="287.5" ></text>
</g>
<g >
<title>[[kernel.kallsyms]] (4 samples, 0.31%)</title><rect x="337.2" y="197" width="3.6" height="15.0" fill="rgb(209,41,39)" rx="2" ry="2" />
<text  x="340.23" y="207.5" ></text>
</g>
<g >
<title>[[kernel.kallsyms]] (2 samples, 0.15%)</title><rect x="94.7" y="261" width="1.8" height="15.0" fill="rgb(240,36,16)" rx="2" ry="2" />
<text  x="97.74" y="271.5" ></text>
</g>
<g >
<title>[[kernel.kallsyms]] (16 samples, 1.22%)</title><rect x="1168.4" y="245" width="14.4" height="15.0" fill="rgb(217,94,53)" rx="2" ry="2" />
<text  x="1171.37" y="255.5" ></text>
</g>
<g >
<title>[[kernel.kallsyms]] (2 samples, 0.15%)</title><rect x="94.7" y="245" width="1.8" height="15.0" fill="rgb(205,26,11)" rx="2" ry="2" />
<text  x="97.74" y="255.5" ></text>
</g>
<g >
<title>[[kernel.kallsyms]] (6 samples, 0.46%)</title><rect x="1135.9" y="325" width="5.4" height="15.0" fill="rgb(208,198,26)" rx="2" ry="2" />
<text  x="1138.91" y="335.5" ></text>
</g>
<g >
<title>[[kernel.kallsyms]] (4 samples, 0.31%)</title><rect x="230.0" y="341" width="3.6" height="15.0" fill="rgb(247,197,39)" rx="2" ry="2" />
<text  x="232.95" y="351.5" ></text>
</g>
<g >
<title>[[kernel.kallsyms]] (2 samples, 0.15%)</title><rect x="152.4" y="309" width="1.8" height="15.0" fill="rgb(245,195,50)" rx="2" ry="2" />
<text  x="155.43" y="319.5" ></text>
</g>
<g >
<title>[[kernel.kallsyms]] (16 samples, 1.22%)</title><rect x="71.3" y="309" width="14.4" height="15.0" fill="rgb(240,20,24)" rx="2" ry="2" />
<text  x="74.30" y="319.5" ></text>
</g>
<g >
<title>str_to_mpn.isra.0 (15 samples, 1.15%)</title><rect x="1148.5" y="373" width="13.6" height="15.0" fill="rgb(231,131,52)" rx="2" ry="2" />
<text  x="1151.53" y="383.5" ></text>
</g>
<g >
<title>[[kernel.kallsyms]] (8 samples, 0.61%)</title><rect x="1182.8" y="325" width="7.2" height="15.0" fill="rgb(227,53,53)" rx="2" ry="2" />
<text  x="1185.79" y="335.5" ></text>
</g>
<g >
<title>[[kernel.kallsyms]] (20 samples, 1.53%)</title><rect x="1117.9" y="357" width="18.0" height="15.0" fill="rgb(228,81,11)" rx="2" ry="2" />
<text  x="1120.88" y="367.5" ></text>
</g>
<g >
<title>__memmove_avx_unaligned_erms (13 samples, 0.99%)</title><rect x="340.8" y="357" width="11.8" height="15.0" fill="rgb(242,209,49)" rx="2" ry="2" />
<text  x="343.83" y="367.5" ></text>
</g>
<g >
<title>[[kernel.kallsyms]] (2 samples, 0.15%)</title><rect x="94.7" y="197" width="1.8" height="15.0" fill="rgb(225,153,34)" rx="2" ry="2" />
<text  x="97.74" y="207.5" ></text>
</g>
<g >
<title>__strcspn_sse42 (25 samples, 1.91%)</title><rect x="96.5" y="341" width="22.6" height="15.0" fill="rgb(240,207,22)" rx="2" ry="2" />
<text  x="99.54" y="351.5" >_..</text>
</g>
<g >
<title>__strlen_avx2 (8 samples, 0.61%)</title><rect x="534.6" y="373" width="7.3" height="15.0" fill="rgb(211,224,50)" rx="2" ry="2" />
<text  x="537.64" y="383.5" ></text>
</g>
<g >
<title>__memmove_avx_unaligned_erms (97 samples, 7.41%)</title><rect x="436.4" y="373" width="87.4" height="15.0" fill="rgb(252,213,38)" rx="2" ry="2" />
<text  x="439.39" y="383.5" >__memmove_..</text>
</g>
<g >
<title>[[kernel.kallsyms]] (4 samples, 0.31%)</title><rect x="1186.4" y="101" width="3.6" height="15.0" fill="rgb(215,209,34)" rx="2" ry="2" />
<text  x="1189.39" y="111.5" ></text>
</g>
<g >
<title>[[kernel.kallsyms]] (1 samples, 0.08%)</title><rect x="84.8" y="101" width="0.9" height="15.0" fill="rgb(237,155,49)" rx="2" ry="2" />
<text  x="87.82" y="111.5" ></text>
</g>
<g >
<title>[[kernel.kallsyms]] (2 samples, 0.15%)</title><rect x="152.4" y="325" width="1.8" height="15.0" fill="rgb(237,125,43)" rx="2" ry="2" />
<text  x="155.43" y="335.5" ></text>
</g>
<g >
<title>[[kernel.kallsyms]] (2 samples, 0.15%)</title><rect x="231.8" y="293" width="1.8" height="15.0" fill="rgb(244,39,2)" rx="2" ry="2" />
<text  x="234.76" y="303.5" ></text>
</g>
<g >
<title>strtok@plt (17 samples, 1.30%)</title><rect x="1167.5" y="373" width="15.3" height="15.0" fill="rgb(254,189,11)" rx="2" ry="2" />
<text  x="1170.46" y="383.5" ></text>
</g>
<g >
<title>[[kernel.kallsyms]] (7 samples, 0.53%)</title><rect x="1183.7" y="165" width="6.3" height="15.0" fill="rgb(241,4,26)" rx="2" ry="2" />
<text  x="1186.69" y="175.5" ></text>
</g>
<g >
<title>[[kernel.kallsyms]] (11 samples, 0.84%)</title><rect x="1126.0" y="325" width="9.9" height="15.0" fill="rgb(213,133,41)" rx="2" ry="2" />
<text  x="1129.00" y="335.5" ></text>
</g>
<g >
<title>[[kernel.kallsyms]] (9 samples, 0.69%)</title><rect x="1127.8" y="277" width="8.1" height="15.0" fill="rgb(254,145,11)" rx="2" ry="2" />
<text  x="1130.80" y="287.5" ></text>
</g>
<g >
<title>[[kernel.kallsyms]] (5 samples, 0.38%)</title><rect x="519.3" y="309" width="4.5" height="15.0" fill="rgb(250,84,3)" rx="2" ry="2" />
<text  x="522.32" y="319.5" ></text>
</g>
<g >
<title>[[kernel.kallsyms]] (12 samples, 0.92%)</title><rect x="74.9" y="213" width="10.8" height="15.0" fill="rgb(212,46,8)" rx="2" ry="2" />
<text  x="77.90" y="223.5" ></text>
</g>
<g >
<title>@plt (1 samples, 0.08%)</title><rect x="90.2" y="357" width="0.9" height="15.0" fill="rgb(254,192,45)" rx="2" ry="2" />
<text  x="93.23" y="367.5" ></text>
</g>
<g >
<title>[[kernel.kallsyms]] (15 samples, 1.15%)</title><rect x="72.2" y="293" width="13.5" height="15.0" fill="rgb(212,156,35)" rx="2" ry="2" />
<text  x="75.20" y="303.5" ></text>
</g>
<g >
<title>[[kernel.kallsyms]] (6 samples, 0.46%)</title><rect x="1135.9" y="309" width="5.4" height="15.0" fill="rgb(233,5,54)" rx="2" ry="2" />
<text  x="1138.91" y="319.5" ></text>
</g>
<g >
<title>[[kernel.kallsyms]] (6 samples, 0.46%)</title><rect x="1135.9" y="357" width="5.4" height="15.0" fill="rgb(235,28,5)" rx="2" ry="2" />
<text  x="1138.91" y="367.5" ></text>
</g>
<g >
<title>[[kernel.kallsyms]] (5 samples, 0.38%)</title><rect x="1136.8" y="277" width="4.5" height="15.0" fill="rgb(251,73,48)" rx="2" ry="2" />
<text  x="1139.81" y="287.5" ></text>
</g>
<g >
<title>[[kernel.kallsyms]] (5 samples, 0.38%)</title><rect x="431.9" y="165" width="4.5" height="15.0" fill="rgb(231,141,12)" rx="2" ry="2" />
<text  x="434.88" y="175.5" ></text>
</g>
<g >
<title>[[kernel.kallsyms]] (6 samples, 0.46%)</title><rect x="335.4" y="309" width="5.4" height="15.0" fill="rgb(206,107,0)" rx="2" ry="2" />
<text  x="338.42" y="319.5" ></text>
</g>
<g >
<title>[[kernel.kallsyms]] (8 samples, 0.61%)</title><rect x="1182.8" y="309" width="7.2" height="15.0" fill="rgb(231,31,37)" rx="2" ry="2" />
<text  x="1185.79" y="319.5" ></text>
</g>
<g >
<title>[[kernel.kallsyms]] (2 samples, 0.15%)</title><rect x="840.2" y="357" width="1.8" height="15.0" fill="rgb(220,43,1)" rx="2" ry="2" />
<text  x="843.24" y="367.5" ></text>
</g>
<g >
<title>[[kernel.kallsyms]] (2 samples, 0.15%)</title><rect x="434.6" y="101" width="1.8" height="15.0" fill="rgb(216,171,12)" rx="2" ry="2" />
<text  x="437.58" y="111.5" ></text>
</g>
<g >
<title>[[kernel.kallsyms]] (1 samples, 0.08%)</title><rect x="153.3" y="293" width="0.9" height="15.0" fill="rgb(227,31,47)" rx="2" ry="2" />
<text  x="156.33" y="303.5" ></text>
</g>
<g >
<title>[[kernel.kallsyms]] (11 samples, 0.84%)</title><rect x="1172.9" y="181" width="9.9" height="15.0" fill="rgb(229,189,2)" rx="2" ry="2" />
<text  x="1175.87" y="191.5" ></text>
</g>
<g >
<title>[[kernel.kallsyms]] (11 samples, 0.84%)</title><rect x="1126.0" y="309" width="9.9" height="15.0" fill="rgb(254,38,4)" rx="2" ry="2" />
<text  x="1129.00" y="319.5" ></text>
</g>
<g >
<title>[[kernel.kallsyms]] (6 samples, 0.46%)</title><rect x="335.4" y="325" width="5.4" height="15.0" fill="rgb(248,39,52)" rx="2" ry="2" />
<text  x="338.42" y="335.5" ></text>
</g>
<g >
<title>[[kernel.kallsyms]] (8 samples, 0.61%)</title><rect x="1182.8" y="197" width="7.2" height="15.0" fill="rgb(216,29,48)" rx="2" ry="2" />
<text  x="1185.79" y="207.5" ></text>
</g>
<g >
<title>@plt (4 samples, 0.31%)</title><rect x="91.1" y="341" width="3.6" height="15.0" fill="rgb(254,53,10)" rx="2" ry="2" />
<text  x="94.13" y="351.5" ></text>
</g>
<g >
<title>[[kernel.kallsyms]] (2 samples, 0.15%)</title><rect x="94.7" y="325" width="1.8" height="15.0" fill="rgb(220,184,48)" rx="2" ry="2" />
<text  x="97.74" y="335.5" ></text>
</g>
<g >
<title>[[kernel.kallsyms]] (6 samples, 0.46%)</title><rect x="335.4" y="341" width="5.4" height="15.0" fill="rgb(236,21,44)" rx="2" ry="2" />
<text  x="338.42" y="351.5" ></text>
</g>
<g >
<title>[[kernel.kallsyms]] (16 samples, 1.22%)</title><rect x="1168.4" y="261" width="14.4" height="15.0" fill="rgb(235,44,5)" rx="2" ry="2" />
<text  x="1171.37" y="271.5" ></text>
</g>
<g >
<title>[[kernel.kallsyms]] (2 samples, 0.15%)</title><rect x="231.8" y="261" width="1.8" height="15.0" fill="rgb(252,156,39)" rx="2" ry="2" />
<text  x="234.76" y="271.5" ></text>
</g>
<g >
<title>[[kernel.kallsyms]] (16 samples, 1.22%)</title><rect x="1121.5" y="341" width="14.4" height="15.0" fill="rgb(220,103,33)" rx="2" ry="2" />
<text  x="1124.49" y="351.5" ></text>
</g>
<g >
<title>[[kernel.kallsyms]] (1 samples, 0.08%)</title><rect x="232.7" y="181" width="0.9" height="15.0" fill="rgb(205,137,21)" rx="2" ry="2" />
<text  x="235.66" y="191.5" ></text>
</g>
<g >
<title>[[kernel.kallsyms]] (5 samples, 0.38%)</title><rect x="1136.8" y="245" width="4.5" height="15.0" fill="rgb(215,153,37)" rx="2" ry="2" />
<text  x="1139.81" y="255.5" ></text>
</g>
<g >
<title>[[kernel.kallsyms]] (8 samples, 0.61%)</title><rect x="1182.8" y="293" width="7.2" height="15.0" fill="rgb(239,181,39)" rx="2" ry="2" />
<text  x="1185.79" y="303.5" ></text>
</g>
<g >
<title>[[kernel.kallsyms]] (3 samples, 0.23%)</title><rect x="433.7" y="133" width="2.7" height="15.0" fill="rgb(247,154,25)" rx="2" ry="2" />
<text  x="436.68" y="143.5" ></text>
</g>
<g >
<title>__memchr_avx2 (40 samples, 3.06%)</title><rect x="304.8" y="357" width="36.0" height="15.0" fill="rgb(239,208,31)" rx="2" ry="2" />
<text  x="307.77" y="367.5" >__m..</text>
</g>
<g >
<title>[[kernel.kallsyms]] (1 samples, 0.08%)</title><rect x="84.8" y="69" width="0.9" height="15.0" fill="rgb(214,160,54)" rx="2" ry="2" />
<text  x="87.82" y="79.5" ></text>
</g>
<g >
<title>[[kernel.kallsyms]] (2 samples, 0.15%)</title><rect x="231.8" y="277" width="1.8" height="15.0" fill="rgb(242,35,3)" rx="2" ry="2" />
<text  x="234.76" y="287.5" ></text>
</g>
<g >
<title>[[kernel.kallsyms]] (5 samples, 0.38%)</title><rect x="519.3" y="229" width="4.5" height="15.0" fill="rgb(206,100,25)" rx="2" ry="2" />
<text  x="522.32" y="239.5" ></text>
</g>
<g >
<title>[[kernel.kallsyms]] (10 samples, 0.76%)</title><rect x="514.8" y="357" width="9.0" height="15.0" fill="rgb(235,188,38)" rx="2" ry="2" />
<text  x="517.81" y="367.5" ></text>
</g>
<g >
<title>[[kernel.kallsyms]] (8 samples, 0.61%)</title><rect x="429.2" y="213" width="7.2" height="15.0" fill="rgb(251,124,8)" rx="2" ry="2" />
<text  x="432.17" y="223.5" ></text>
</g>
<g >
<title>_IO_getline (22 samples, 1.68%)</title><rect x="233.6" y="357" width="19.8" height="15.0" fill="rgb(245,11,21)" rx="2" ry="2" />
<text  x="236.56" y="367.5" ></text>
</g>
<g >
<title>[[kernel.kallsyms]] (8 samples, 0.61%)</title><rect x="1182.8" y="261" width="7.2" height="15.0" fill="rgb(234,8,22)" rx="2" ry="2" />
<text  x="1185.79" y="271.5" ></text>
</g>
<g >
<title>round_and_return (8 samples, 0.61%)</title><rect x="1141.3" y="373" width="7.2" height="15.0" fill="rgb(245,135,24)" rx="2" ry="2" />
<text  x="1144.32" y="383.5" ></text>
</g>
</g>
</svg>
