<?xml version="1.0" standalone="no"?>
<!DOCTYPE svg PUBLIC "-//W3C//DTD SVG 1.1//EN" "http://www.w3.org/Graphics/SVG/1.1/DTD/svg11.dtd">
<svg version="1.1" width="1200" height="566" onload="init(evt)" viewBox="0 0 1200 566" xmlns="http://www.w3.org/2000/svg" xmlns:xlink="http://www.w3.org/1999/xlink">
<!-- Flame graph stack visualization. See https://github.com/brendangregg/FlameGraph for latest version, and http://www.brendangregg.com/flamegraphs.html for examples. -->
<!-- NOTES:  -->
<defs>
	<linearGradient id="background" y1="0" y2="1" x1="0" x2="0" >
		<stop stop-color="#eeeeee" offset="5%" />
		<stop stop-color="#eeeeb0" offset="95%" />
	</linearGradient>
</defs>
<style type="text/css">
	text { font-family:Verdana; font-size:12px; fill:rgb(0,0,0); }
	#search, #ignorecase { opacity:0.1; cursor:pointer; }
	#search:hover, #search.show, #ignorecase:hover, #ignorecase.show { opacity:1; }
	#subtitle { text-anchor:middle; font-color:rgb(160,160,160); }
	#title { text-anchor:middle; font-size:17px}
	#unzoom { cursor:pointer; }
	#frames > *:hover { stroke:black; stroke-width:0.5; cursor:pointer; }
	.hide { display:none; }
	.parent { opacity:0.5; }
</style>
<script type="text/ecmascript">
<![CDATA[
	"use strict";
	var details, searchbtn, unzoombtn, matchedtxt, svg, searching, currentSearchTerm, ignorecase, ignorecaseBtn;
	function init(evt) {
		details = document.getElementById("details").firstChild;
		searchbtn = document.getElementById("search");
		ignorecaseBtn = document.getElementById("ignorecase");
		unzoombtn = document.getElementById("unzoom");
		matchedtxt = document.getElementById("matched");
		svg = document.getElementsByTagName("svg")[0];
		searching = 0;
		currentSearchTerm = null;
	}

	window.addEventListener("click", function(e) {
		var target = find_group(e.target);
		if (target) {
			if (target.nodeName == "a") {
				if (e.ctrlKey === false) return;
				e.preventDefault();
			}
			if (target.classList.contains("parent")) unzoom();
			zoom(target);
		}
		else if (e.target.id == "unzoom") unzoom();
		else if (e.target.id == "search") search_prompt();
		else if (e.target.id == "ignorecase") toggle_ignorecase();
	}, false)

	// mouse-over for info
	// show
	window.addEventListener("mouseover", function(e) {
		var target = find_group(e.target);
		if (target) details.nodeValue = "Function: " + g_to_text(target);
	}, false)

	// clear
	window.addEventListener("mouseout", function(e) {
		var target = find_group(e.target);
		if (target) details.nodeValue = ' ';
	}, false)

	// ctrl-F for search
	window.addEventListener("keydown",function (e) {
		if (e.keyCode === 114 || (e.ctrlKey && e.keyCode === 70)) {
			e.preventDefault();
			search_prompt();
		}
	}, false)

	// ctrl-I to toggle case-sensitive search
	window.addEventListener("keydown",function (e) {
		if (e.ctrlKey && e.keyCode === 73) {
			e.preventDefault();
			toggle_ignorecase();
		}
	}, false)

	// functions
	function find_child(node, selector) {
		var children = node.querySelectorAll(selector);
		if (children.length) return children[0];
		return;
	}
	function find_group(node) {
		var parent = node.parentElement;
		if (!parent) return;
		if (parent.id == "frames") return node;
		return find_group(parent);
	}
	function orig_save(e, attr, val) {
		if (e.attributes["_orig_" + attr] != undefined) return;
		if (e.attributes[attr] == undefined) return;
		if (val == undefined) val = e.attributes[attr].value;
		e.setAttribute("_orig_" + attr, val);
	}
	function orig_load(e, attr) {
		if (e.attributes["_orig_"+attr] == undefined) return;
		e.attributes[attr].value = e.attributes["_orig_" + attr].value;
		e.removeAttribute("_orig_"+attr);
	}
	function g_to_text(e) {
		var text = find_child(e, "title").firstChild.nodeValue;
		return (text)
	}
	function g_to_func(e) {
		var func = g_to_text(e);
		// if there's any manipulation we want to do to the function
		// name before it's searched, do it here before returning.
		return (func);
	}
	function update_text(e) {
		var r = find_child(e, "rect");
		var t = find_child(e, "text");
		var w = parseFloat(r.attributes.width.value) -3;
		var txt = find_child(e, "title").textContent.replace(/\([^(]*\)$/,"");
		t.attributes.x.value = parseFloat(r.attributes.x.value) + 3;

		// Smaller than this size won't fit anything
		if (w < 2 * 12 * 0.59) {
			t.textContent = "";
			return;
		}

		t.textContent = txt;
		// Fit in full text width
		if (/^ *$/.test(txt) || t.getSubStringLength(0, txt.length) < w)
			return;

		for (var x = txt.length - 2; x > 0; x--) {
			if (t.getSubStringLength(0, x + 2) <= w) {
				t.textContent = txt.substring(0, x) + "..";
				return;
			}
		}
		t.textContent = "";
	}

	// zoom
	function zoom_reset(e) {
		if (e.attributes != undefined) {
			orig_load(e, "x");
			orig_load(e, "width");
		}
		if (e.childNodes == undefined) return;
		for (var i = 0, c = e.childNodes; i < c.length; i++) {
			zoom_reset(c[i]);
		}
	}
	function zoom_child(e, x, ratio) {
		if (e.attributes != undefined) {
			if (e.attributes.x != undefined) {
				orig_save(e, "x");
				e.attributes.x.value = (parseFloat(e.attributes.x.value) - x - 10) * ratio + 10;
				if (e.tagName == "text")
					e.attributes.x.value = find_child(e.parentNode, "rect[x]").attributes.x.value + 3;
			}
			if (e.attributes.width != undefined) {
				orig_save(e, "width");
				e.attributes.width.value = parseFloat(e.attributes.width.value) * ratio;
			}
		}

		if (e.childNodes == undefined) return;
		for (var i = 0, c = e.childNodes; i < c.length; i++) {
			zoom_child(c[i], x - 10, ratio);
		}
	}
	function zoom_parent(e) {
		if (e.attributes) {
			if (e.attributes.x != undefined) {
				orig_save(e, "x");
				e.attributes.x.value = 10;
			}
			if (e.attributes.width != undefined) {
				orig_save(e, "width");
				e.attributes.width.value = parseInt(svg.width.baseVal.value) - (10 * 2);
			}
		}
		if (e.childNodes == undefined) return;
		for (var i = 0, c = e.childNodes; i < c.length; i++) {
			zoom_parent(c[i]);
		}
	}
	function zoom(node) {
		var attr = find_child(node, "rect").attributes;
		var width = parseFloat(attr.width.value);
		var xmin = parseFloat(attr.x.value);
		var xmax = parseFloat(xmin + width);
		var ymin = parseFloat(attr.y.value);
		var ratio = (svg.width.baseVal.value - 2 * 10) / width;

		// XXX: Workaround for JavaScript float issues (fix me)
		var fudge = 0.0001;

		unzoombtn.classList.remove("hide");

		var el = document.getElementById("frames").children;
		for (var i = 0; i < el.length; i++) {
			var e = el[i];
			var a = find_child(e, "rect").attributes;
			var ex = parseFloat(a.x.value);
			var ew = parseFloat(a.width.value);
			var upstack;
			// Is it an ancestor
			if (0 == 0) {
				upstack = parseFloat(a.y.value) > ymin;
			} else {
				upstack = parseFloat(a.y.value) < ymin;
			}
			if (upstack) {
				// Direct ancestor
				if (ex <= xmin && (ex+ew+fudge) >= xmax) {
					e.classList.add("parent");
					zoom_parent(e);
					update_text(e);
				}
				// not in current path
				else
					e.classList.add("hide");
			}
			// Children maybe
			else {
				// no common path
				if (ex < xmin || ex + fudge >= xmax) {
					e.classList.add("hide");
				}
				else {
					zoom_child(e, xmin, ratio);
					update_text(e);
				}
			}
		}
		search();
	}
	function unzoom() {
		unzoombtn.classList.add("hide");
		var el = document.getElementById("frames").children;
		for(var i = 0; i < el.length; i++) {
			el[i].classList.remove("parent");
			el[i].classList.remove("hide");
			zoom_reset(el[i]);
			update_text(el[i]);
		}
		search();
	}

	// search
	function toggle_ignorecase() {
		ignorecase = !ignorecase;
		if (ignorecase) {
			ignorecaseBtn.classList.add("show");
		} else {
			ignorecaseBtn.classList.remove("show");
		}
		reset_search();
		search();
	}
	function reset_search() {
		var el = document.querySelectorAll("#frames rect");
		for (var i = 0; i < el.length; i++) {
			orig_load(el[i], "fill")
		}
	}
	function search_prompt() {
		if (!searching) {
			var term = prompt("Enter a search term (regexp " +
			    "allowed, eg: ^ext4_)"
			    + (ignorecase ? ", ignoring case" : "")
			    + "\nPress Ctrl-i to toggle case sensitivity", "");
			if (term != null) {
				currentSearchTerm = term;
				search();
			}
		} else {
			reset_search();
			searching = 0;
			currentSearchTerm = null;
			searchbtn.classList.remove("show");
			searchbtn.firstChild.nodeValue = "Search"
			matchedtxt.classList.add("hide");
			matchedtxt.firstChild.nodeValue = ""
		}
	}
	function search(term) {
		if (currentSearchTerm === null) return;
		var term = currentSearchTerm;

		var re = new RegExp(term, ignorecase ? 'i' : '');
		var el = document.getElementById("frames").children;
		var matches = new Object();
		var maxwidth = 0;
		for (var i = 0; i < el.length; i++) {
			var e = el[i];
			var func = g_to_func(e);
			var rect = find_child(e, "rect");
			if (func == null || rect == null)
				continue;

			// Save max width. Only works as we have a root frame
			var w = parseFloat(rect.attributes.width.value);
			if (w > maxwidth)
				maxwidth = w;

			if (func.match(re)) {
				// highlight
				var x = parseFloat(rect.attributes.x.value);
				orig_save(rect, "fill");
				rect.attributes.fill.value = "rgb(230,0,230)";

				// remember matches
				if (matches[x] == undefined) {
					matches[x] = w;
				} else {
					if (w > matches[x]) {
						// overwrite with parent
						matches[x] = w;
					}
				}
				searching = 1;
			}
		}
		if (!searching)
			return;

		searchbtn.classList.add("show");
		searchbtn.firstChild.nodeValue = "Reset Search";

		// calculate percent matched, excluding vertical overlap
		var count = 0;
		var lastx = -1;
		var lastw = 0;
		var keys = Array();
		for (k in matches) {
			if (matches.hasOwnProperty(k))
				keys.push(k);
		}
		// sort the matched frames by their x location
		// ascending, then width descending
		keys.sort(function(a, b){
			return a - b;
		});
		// Step through frames saving only the biggest bottom-up frames
		// thanks to the sort order. This relies on the tree property
		// where children are always smaller than their parents.
		var fudge = 0.0001;	// JavaScript floating point
		for (var k in keys) {
			var x = parseFloat(keys[k]);
			var w = matches[keys[k]];
			if (x >= lastx + lastw - fudge) {
				count += w;
				lastx = x;
				lastw = w;
			}
		}
		// display matched percent
		matchedtxt.classList.remove("hide");
		var pct = 100 * count / maxwidth;
		if (pct != 100) pct = pct.toFixed(1)
		matchedtxt.firstChild.nodeValue = "Matched: " + pct + "%";
	}
]]>
</script>
<rect x="0.0" y="0" width="1200.0" height="566.0" fill="url(#background)"  />
<text id="title" x="600.00" y="24" >Flame Graph</text>
<text id="details" x="10.00" y="549" > </text>
<text id="unzoom" x="10.00" y="24" class="hide">Reset Zoom</text>
<text id="search" x="1090.00" y="24" >Search</text>
<text id="ignorecase" x="1174.00" y="24" >ic</text>
<text id="matched" x="1090.00" y="549" > </text>
<g id="frames">
<g >
<title>[[kernel.kallsyms]] (1 samples, 0.03%)</title><rect x="902.7" y="453" width="0.3" height="15.0" fill="rgb(245,6,49)" rx="2" ry="2" />
<text  x="905.72" y="463.5" ></text>
</g>
<g >
<title>[[kernel.kallsyms]] (8 samples, 0.21%)</title><rect x="1187.5" y="357" width="2.5" height="15.0" fill="rgb(237,152,13)" rx="2" ry="2" />
<text  x="1190.53" y="367.5" ></text>
</g>
<g >
<title>[[kernel.kallsyms]] (1 samples, 0.03%)</title><rect x="10.9" y="293" width="0.3" height="15.0" fill="rgb(252,187,42)" rx="2" ry="2" />
<text  x="13.93" y="303.5" ></text>
</g>
<g >
<title>ReadSet (84 samples, 2.20%)</title><rect x="46.5" y="437" width="25.9" height="15.0" fill="rgb(223,118,39)" rx="2" ry="2" />
<text  x="49.45" y="447.5" >R..</text>
</g>
<g >
<title>[[kernel.kallsyms]] (2 samples, 0.05%)</title><rect x="10.6" y="405" width="0.6" height="15.0" fill="rgb(209,51,17)" rx="2" ry="2" />
<text  x="13.62" y="415.5" ></text>
</g>
<g >
<title>__strsep_g (2 samples, 0.05%)</title><rect x="90.0" y="437" width="0.6" height="15.0" fill="rgb(219,118,4)" rx="2" ry="2" />
<text  x="93.01" y="447.5" ></text>
</g>
<g >
<title>[[kernel.kallsyms]] (1 samples, 0.03%)</title><rect x="45.8" y="325" width="0.3" height="15.0" fill="rgb(213,102,19)" rx="2" ry="2" />
<text  x="48.83" y="335.5" ></text>
</g>
<g >
<title>__mpn_construct_double (19 samples, 0.50%)</title><rect x="872.8" y="469" width="5.8" height="15.0" fill="rgb(227,40,2)" rx="2" ry="2" />
<text  x="875.76" y="479.5" ></text>
</g>
<g >
<title>[[kernel.kallsyms]] (865 samples, 22.64%)</title><rect x="604.9" y="373" width="267.2" height="15.0" fill="rgb(248,119,43)" rx="2" ry="2" />
<text  x="607.94" y="383.5" >[[kernel.kallsyms]]</text>
</g>
<g >
<title>[[kernel.kallsyms]] (2 samples, 0.05%)</title><rect x="1189.4" y="149" width="0.6" height="15.0" fill="rgb(240,113,37)" rx="2" ry="2" />
<text  x="1192.38" y="159.5" ></text>
</g>
<g >
<title>[[kernel.kallsyms]] (1 samples, 0.03%)</title><rect x="948.7" y="453" width="0.4" height="15.0" fill="rgb(227,132,7)" rx="2" ry="2" />
<text  x="951.75" y="463.5" ></text>
</g>
<g >
<title>[[kernel.kallsyms]] (2 samples, 0.05%)</title><rect x="10.6" y="437" width="0.6" height="15.0" fill="rgb(248,34,43)" rx="2" ry="2" />
<text  x="13.62" y="447.5" ></text>
</g>
<g >
<title>__GI_____strtod_l_internal (33 samples, 0.86%)</title><rect x="72.4" y="437" width="10.2" height="15.0" fill="rgb(252,212,40)" rx="2" ry="2" />
<text  x="75.40" y="447.5" ></text>
</g>
<g >
<title>[[kernel.kallsyms]] (18 samples, 0.47%)</title><rect x="65.3" y="341" width="5.6" height="15.0" fill="rgb(213,116,35)" rx="2" ry="2" />
<text  x="68.29" y="351.5" ></text>
</g>
<g >
<title>[[kernel.kallsyms]] (2,872 samples, 75.18%)</title><rect x="10.6" y="485" width="887.2" height="15.0" fill="rgb(254,33,46)" rx="2" ry="2" />
<text  x="13.62" y="495.5" >[[kernel.kallsyms]]</text>
</g>
<g >
<title>[[kernel.kallsyms]] (9 samples, 0.24%)</title><rect x="1016.4" y="373" width="2.8" height="15.0" fill="rgb(248,151,12)" rx="2" ry="2" />
<text  x="1019.40" y="383.5" ></text>
</g>
<g >
<title>[[kernel.kallsyms]] (253 samples, 6.62%)</title><rect x="794.0" y="277" width="78.1" height="15.0" fill="rgb(235,173,24)" rx="2" ry="2" />
<text  x="796.99" y="287.5" >[[kernel...</text>
</g>
<g >
<title>[[kernel.kallsyms]] (5 samples, 0.13%)</title><rect x="1188.5" y="197" width="1.5" height="15.0" fill="rgb(218,80,22)" rx="2" ry="2" />
<text  x="1191.46" y="207.5" ></text>
</g>
<g >
<title>[[kernel.kallsyms]] (1 samples, 0.03%)</title><rect x="72.1" y="293" width="0.3" height="15.0" fill="rgb(228,100,25)" rx="2" ry="2" />
<text  x="75.09" y="303.5" ></text>
</g>
<g >
<title>[[kernel.kallsyms]] (4 samples, 0.10%)</title><rect x="44.9" y="421" width="1.2" height="15.0" fill="rgb(239,39,23)" rx="2" ry="2" />
<text  x="47.91" y="431.5" ></text>
</g>
<g >
<title>[[kernel.kallsyms]] (3 samples, 0.08%)</title><rect x="1189.1" y="181" width="0.9" height="15.0" fill="rgb(213,160,51)" rx="2" ry="2" />
<text  x="1192.07" y="191.5" ></text>
</g>
<g >
<title>[[kernel.kallsyms]] (522 samples, 13.66%)</title><rect x="710.9" y="309" width="161.2" height="15.0" fill="rgb(231,118,47)" rx="2" ry="2" />
<text  x="713.90" y="319.5" >[[kernel.kallsyms]]</text>
</g>
<g >
<title>__GI_____strtod_l_internal (65 samples, 1.70%)</title><rect x="26.1" y="469" width="20.0" height="15.0" fill="rgb(223,207,10)" rx="2" ry="2" />
<text  x="29.06" y="479.5" ></text>
</g>
<g >
<title>[[kernel.kallsyms]] (1 samples, 0.03%)</title><rect x="72.1" y="405" width="0.3" height="15.0" fill="rgb(237,184,40)" rx="2" ry="2" />
<text  x="75.09" y="415.5" ></text>
</g>
<g >
<title>[[kernel.kallsyms]] (8 samples, 0.21%)</title><rect x="1187.5" y="309" width="2.5" height="15.0" fill="rgb(226,30,20)" rx="2" ry="2" />
<text  x="1190.53" y="319.5" ></text>
</g>
<g >
<title>malloc (8 samples, 0.21%)</title><rect x="883.9" y="469" width="2.5" height="15.0" fill="rgb(234,9,42)" rx="2" ry="2" />
<text  x="886.88" y="479.5" ></text>
</g>
<g >
<title>[[kernel.kallsyms]] (2 samples, 0.05%)</title><rect x="10.6" y="389" width="0.6" height="15.0" fill="rgb(230,95,34)" rx="2" ry="2" />
<text  x="13.62" y="399.5" ></text>
</g>
<g >
<title>round_and_return (4 samples, 0.10%)</title><rect x="1180.1" y="485" width="1.3" height="15.0" fill="rgb(221,228,24)" rx="2" ry="2" />
<text  x="1183.12" y="495.5" ></text>
</g>
<g >
<title>[[kernel.kallsyms]] (11 samples, 0.29%)</title><rect x="868.7" y="133" width="3.4" height="15.0" fill="rgb(205,11,11)" rx="2" ry="2" />
<text  x="871.74" y="143.5" ></text>
</g>
<g >
<title>[[kernel.kallsyms]] (1 samples, 0.03%)</title><rect x="948.7" y="469" width="0.4" height="15.0" fill="rgb(205,213,28)" rx="2" ry="2" />
<text  x="951.75" y="479.5" ></text>
</g>
<g >
<title>str_to_mpn.isra.0 (20 samples, 0.52%)</title><rect x="1181.4" y="485" width="6.1" height="15.0" fill="rgb(209,15,6)" rx="2" ry="2" />
<text  x="1184.35" y="495.5" ></text>
</g>
<g >
<title>[[kernel.kallsyms]] (9 samples, 0.24%)</title><rect x="869.4" y="117" width="2.7" height="15.0" fill="rgb(249,36,47)" rx="2" ry="2" />
<text  x="872.36" y="127.5" ></text>
</g>
<g >
<title>[[kernel.kallsyms]] (21 samples, 0.55%)</title><rect x="865.7" y="197" width="6.4" height="15.0" fill="rgb(231,19,19)" rx="2" ry="2" />
<text  x="868.65" y="207.5" ></text>
</g>
<g >
<title>[[kernel.kallsyms]] (6 samples, 0.16%)</title><rect x="1188.1" y="213" width="1.9" height="15.0" fill="rgb(210,101,30)" rx="2" ry="2" />
<text  x="1191.15" y="223.5" ></text>
</g>
<g >
<title>[[kernel.kallsyms]] (781 samples, 20.45%)</title><rect x="630.9" y="357" width="241.2" height="15.0" fill="rgb(248,82,53)" rx="2" ry="2" />
<text  x="633.89" y="367.5" >[[kernel.kallsyms]]</text>
</g>
<g >
<title>[[kernel.kallsyms]] (7 samples, 0.18%)</title><rect x="1017.0" y="341" width="2.2" height="15.0" fill="rgb(219,42,26)" rx="2" ry="2" />
<text  x="1020.02" y="351.5" ></text>
</g>
<g >
<title>__mpn_lshift (6 samples, 0.16%)</title><rect x="927.4" y="485" width="1.9" height="15.0" fill="rgb(206,9,50)" rx="2" ry="2" />
<text  x="930.43" y="495.5" ></text>
</g>
<g >
<title>[[kernel.kallsyms]] (1 samples, 0.03%)</title><rect x="902.7" y="437" width="0.3" height="15.0" fill="rgb(249,6,15)" rx="2" ry="2" />
<text  x="905.72" y="447.5" ></text>
</g>
<g >
<title>[[kernel.kallsyms]] (1 samples, 0.03%)</title><rect x="948.7" y="373" width="0.4" height="15.0" fill="rgb(241,192,48)" rx="2" ry="2" />
<text  x="951.75" y="383.5" ></text>
</g>
<g >
<title>all (3,820 samples, 100%)</title><rect x="10.0" y="517" width="1180.0" height="15.0" fill="rgb(240,166,54)" rx="2" ry="2" />
<text  x="13.00" y="527.5" ></text>
</g>
<g >
<title>[[kernel.kallsyms]] (48 samples, 1.26%)</title><rect x="10.6" y="469" width="14.8" height="15.0" fill="rgb(246,27,29)" rx="2" ry="2" />
<text  x="13.62" y="479.5" ></text>
</g>
<g >
<title>[[kernel.kallsyms]] (3 samples, 0.08%)</title><rect x="45.2" y="341" width="0.9" height="15.0" fill="rgb(253,99,30)" rx="2" ry="2" />
<text  x="48.21" y="351.5" ></text>
</g>
<g >
<title>[[kernel.kallsyms]] (2 samples, 0.05%)</title><rect x="70.2" y="229" width="0.7" height="15.0" fill="rgb(231,54,21)" rx="2" ry="2" />
<text  x="73.24" y="239.5" ></text>
</g>
<g >
<title>[[kernel.kallsyms]] (2 samples, 0.05%)</title><rect x="10.6" y="373" width="0.6" height="15.0" fill="rgb(219,200,24)" rx="2" ry="2" />
<text  x="13.62" y="383.5" ></text>
</g>
<g >
<title>[[kernel.kallsyms]] (15 samples, 0.39%)</title><rect x="867.5" y="149" width="4.6" height="15.0" fill="rgb(244,214,20)" rx="2" ry="2" />
<text  x="870.51" y="159.5" ></text>
</g>
<g >
<title>[[kernel.kallsyms]] (2 samples, 0.05%)</title><rect x="10.6" y="357" width="0.6" height="15.0" fill="rgb(228,14,51)" rx="2" ry="2" />
<text  x="13.62" y="367.5" ></text>
</g>
<g >
<title>[[kernel.kallsyms]] (1 samples, 0.03%)</title><rect x="871.8" y="37" width="0.3" height="15.0" fill="rgb(243,38,51)" rx="2" ry="2" />
<text  x="874.83" y="47.5" ></text>
</g>
<g >
<title>[[kernel.kallsyms]] (1 samples, 0.03%)</title><rect x="948.7" y="437" width="0.4" height="15.0" fill="rgb(212,39,38)" rx="2" ry="2" />
<text  x="951.75" y="447.5" ></text>
</g>
<g >
<title>[[kernel.kallsyms]] (1 samples, 0.03%)</title><rect x="948.7" y="405" width="0.4" height="15.0" fill="rgb(249,128,52)" rx="2" ry="2" />
<text  x="951.75" y="415.5" ></text>
</g>
<g >
<title>__GI_____strtod_l_internal (16 samples, 0.42%)</title><rect x="897.8" y="485" width="4.9" height="15.0" fill="rgb(219,84,12)" rx="2" ry="2" />
<text  x="900.78" y="495.5" ></text>
</g>
<g >
<title>[[kernel.kallsyms]] (3 samples, 0.08%)</title><rect x="1189.1" y="165" width="0.9" height="15.0" fill="rgb(242,48,39)" rx="2" ry="2" />
<text  x="1192.07" y="175.5" ></text>
</g>
<g >
<title>AddPoint (42 samples, 1.10%)</title><rect x="57.9" y="421" width="13.0" height="15.0" fill="rgb(248,50,11)" rx="2" ry="2" />
<text  x="60.88" y="431.5" ></text>
</g>
<g >
<title>[[kernel.kallsyms]] (1 samples, 0.03%)</title><rect x="1018.9" y="309" width="0.3" height="15.0" fill="rgb(230,25,30)" rx="2" ry="2" />
<text  x="1021.87" y="319.5" ></text>
</g>
<g >
<title>[[kernel.kallsyms]] (2,474 samples, 64.76%)</title><rect x="107.9" y="421" width="764.2" height="15.0" fill="rgb(231,216,4)" rx="2" ry="2" />
<text  x="110.92" y="431.5" >[[kernel.kallsyms]]</text>
</g>
<g >
<title>[[kernel.kallsyms]] (604 samples, 15.81%)</title><rect x="685.6" y="325" width="186.5" height="15.0" fill="rgb(230,83,16)" rx="2" ry="2" />
<text  x="688.57" y="335.5" >[[kernel.kallsyms]]</text>
</g>
<g >
<title>[[kernel.kallsyms]] (5 samples, 0.13%)</title><rect x="870.6" y="69" width="1.5" height="15.0" fill="rgb(253,212,18)" rx="2" ry="2" />
<text  x="873.60" y="79.5" ></text>
</g>
<g >
<title>[[kernel.kallsyms]] (4 samples, 0.10%)</title><rect x="44.9" y="389" width="1.2" height="15.0" fill="rgb(227,124,3)" rx="2" ry="2" />
<text  x="47.91" y="399.5" ></text>
</g>
<g >
<title>[[kernel.kallsyms]] (1 samples, 0.03%)</title><rect x="10.9" y="309" width="0.3" height="15.0" fill="rgb(222,183,16)" rx="2" ry="2" />
<text  x="13.93" y="319.5" ></text>
</g>
<g >
<title>[[kernel.kallsyms]] (1 samples, 0.03%)</title><rect x="10.9" y="277" width="0.3" height="15.0" fill="rgb(252,149,23)" rx="2" ry="2" />
<text  x="13.93" y="287.5" ></text>
</g>
<g >
<title>[[kernel.kallsyms]] (1 samples, 0.03%)</title><rect x="72.1" y="389" width="0.3" height="15.0" fill="rgb(231,95,35)" rx="2" ry="2" />
<text  x="75.09" y="399.5" ></text>
</g>
<g >
<title>__strlen_avx2 (12 samples, 0.31%)</title><rect x="880.2" y="469" width="3.7" height="15.0" fill="rgb(238,191,19)" rx="2" ry="2" />
<text  x="883.17" y="479.5" ></text>
</g>
<g >
<title>[[kernel.kallsyms]] (1 samples, 0.03%)</title><rect x="72.1" y="325" width="0.3" height="15.0" fill="rgb(250,21,41)" rx="2" ry="2" />
<text  x="75.09" y="335.5" ></text>
</g>
<g >
<title>[[kernel.kallsyms]] (9 samples, 0.24%)</title><rect x="1016.4" y="421" width="2.8" height="15.0" fill="rgb(254,226,23)" rx="2" ry="2" />
<text  x="1019.40" y="431.5" ></text>
</g>
<g >
<title>[[kernel.kallsyms]] (17 samples, 0.45%)</title><rect x="65.6" y="309" width="5.3" height="15.0" fill="rgb(206,14,19)" rx="2" ry="2" />
<text  x="68.60" y="319.5" ></text>
</g>
<g >
<title>[[kernel.kallsyms]] (20 samples, 0.52%)</title><rect x="64.7" y="389" width="6.2" height="15.0" fill="rgb(223,194,51)" rx="2" ry="2" />
<text  x="67.68" y="399.5" ></text>
</g>
<g >
<title>[[kernel.kallsyms]] (18 samples, 0.47%)</title><rect x="65.3" y="325" width="5.6" height="15.0" fill="rgb(212,60,0)" rx="2" ry="2" />
<text  x="68.29" y="335.5" ></text>
</g>
<g >
<title>[[kernel.kallsyms]] (9 samples, 0.24%)</title><rect x="1016.4" y="405" width="2.8" height="15.0" fill="rgb(251,171,51)" rx="2" ry="2" />
<text  x="1019.40" y="415.5" ></text>
</g>
<g >
<title>[[kernel.kallsyms]] (13 samples, 0.34%)</title><rect x="1015.2" y="469" width="4.0" height="15.0" fill="rgb(211,201,14)" rx="2" ry="2" />
<text  x="1018.16" y="479.5" ></text>
</g>
<g >
<title>[[kernel.kallsyms]] (2 samples, 0.05%)</title><rect x="10.6" y="453" width="0.6" height="15.0" fill="rgb(232,163,0)" rx="2" ry="2" />
<text  x="13.62" y="463.5" ></text>
</g>
<g >
<title>[[kernel.kallsyms]] (15 samples, 0.39%)</title><rect x="66.2" y="293" width="4.7" height="15.0" fill="rgb(231,216,36)" rx="2" ry="2" />
<text  x="69.22" y="303.5" ></text>
</g>
<g >
<title>__strcspn_sse42 (32 samples, 0.84%)</title><rect x="11.2" y="453" width="9.9" height="15.0" fill="rgb(254,168,33)" rx="2" ry="2" />
<text  x="14.24" y="463.5" ></text>
</g>
<g >
<title>[[kernel.kallsyms]] (1 samples, 0.03%)</title><rect x="902.7" y="405" width="0.3" height="15.0" fill="rgb(225,149,49)" rx="2" ry="2" />
<text  x="905.72" y="415.5" ></text>
</g>
<g >
<title>[[kernel.kallsyms]] (8 samples, 0.21%)</title><rect x="1187.5" y="405" width="2.5" height="15.0" fill="rgb(226,199,16)" rx="2" ry="2" />
<text  x="1190.53" y="415.5" ></text>
</g>
<g >
<title>[[kernel.kallsyms]] (1 samples, 0.03%)</title><rect x="902.7" y="357" width="0.3" height="15.0" fill="rgb(221,169,20)" rx="2" ry="2" />
<text  x="905.72" y="367.5" ></text>
</g>
<g >
<title>round_and_return (19 samples, 0.50%)</title><rect x="886.4" y="469" width="5.8" height="15.0" fill="rgb(207,49,47)" rx="2" ry="2" />
<text  x="889.35" y="479.5" ></text>
</g>
<g >
<title>[[kernel.kallsyms]] (1 samples, 0.03%)</title><rect x="902.7" y="421" width="0.3" height="15.0" fill="rgb(218,62,32)" rx="2" ry="2" />
<text  x="905.72" y="431.5" ></text>
</g>
<g >
<title>[[kernel.kallsyms]] (3 samples, 0.08%)</title><rect x="69.9" y="245" width="1.0" height="15.0" fill="rgb(232,173,4)" rx="2" ry="2" />
<text  x="72.93" y="255.5" ></text>
</g>
<g >
<title>[[kernel.kallsyms]] (19 samples, 0.50%)</title><rect x="65.0" y="357" width="5.9" height="15.0" fill="rgb(242,77,10)" rx="2" ry="2" />
<text  x="67.98" y="367.5" ></text>
</g>
<g >
<title>read (2,519 samples, 65.94%)</title><rect x="94.0" y="437" width="778.1" height="15.0" fill="rgb(234,0,28)" rx="2" ry="2" />
<text  x="97.02" y="447.5" >read</text>
</g>
<g >
<title>[[kernel.kallsyms]] (6 samples, 0.16%)</title><rect x="1188.1" y="261" width="1.9" height="15.0" fill="rgb(227,152,46)" rx="2" ry="2" />
<text  x="1191.15" y="271.5" ></text>
</g>
<g >
<title>[[kernel.kallsyms]] (19 samples, 0.50%)</title><rect x="65.0" y="373" width="5.9" height="15.0" fill="rgb(240,130,49)" rx="2" ry="2" />
<text  x="67.98" y="383.5" ></text>
</g>
<g >
<title>[[kernel.kallsyms]] (1 samples, 0.03%)</title><rect x="948.7" y="341" width="0.4" height="15.0" fill="rgb(228,107,44)" rx="2" ry="2" />
<text  x="951.75" y="351.5" ></text>
</g>
<g >
<title>[[kernel.kallsyms]] (1 samples, 0.03%)</title><rect x="948.7" y="389" width="0.4" height="15.0" fill="rgb(252,192,29)" rx="2" ry="2" />
<text  x="951.75" y="399.5" ></text>
</g>
<g >
<title>[[kernel.kallsyms]] (1 samples, 0.03%)</title><rect x="902.7" y="469" width="0.3" height="15.0" fill="rgb(205,215,53)" rx="2" ry="2" />
<text  x="905.72" y="479.5" ></text>
</g>
<g >
<title>read@plt (1 samples, 0.03%)</title><rect x="872.1" y="437" width="0.4" height="15.0" fill="rgb(227,137,18)" rx="2" ry="2" />
<text  x="875.14" y="447.5" ></text>
</g>
<g >
<title>__strsep_g (14 samples, 0.37%)</title><rect x="21.1" y="453" width="4.3" height="15.0" fill="rgb(232,35,46)" rx="2" ry="2" />
<text  x="24.12" y="463.5" ></text>
</g>
<g >
<title>[[kernel.kallsyms]] (1 samples, 0.03%)</title><rect x="72.1" y="373" width="0.3" height="15.0" fill="rgb(223,145,3)" rx="2" ry="2" />
<text  x="75.09" y="383.5" ></text>
</g>
<g >
<title>[[kernel.kallsyms]] (893 samples, 23.38%)</title><rect x="596.3" y="389" width="275.8" height="15.0" fill="rgb(228,17,47)" rx="2" ry="2" />
<text  x="599.29" y="399.5" >[[kernel.kallsyms]]</text>
</g>
<g >
<title>[[kernel.kallsyms]] (1 samples, 0.03%)</title><rect x="948.7" y="293" width="0.4" height="15.0" fill="rgb(241,96,4)" rx="2" ry="2" />
<text  x="951.75" y="303.5" ></text>
</g>
<g >
<title>[[kernel.kallsyms]] (2 samples, 0.05%)</title><rect x="10.6" y="341" width="0.6" height="15.0" fill="rgb(228,23,21)" rx="2" ry="2" />
<text  x="13.62" y="351.5" ></text>
</g>
<g >
<title>[[kernel.kallsyms]] (4 samples, 0.10%)</title><rect x="870.9" y="53" width="1.2" height="15.0" fill="rgb(218,111,6)" rx="2" ry="2" />
<text  x="873.91" y="63.5" ></text>
</g>
<g >
<title>strtod (1 samples, 0.03%)</title><rect x="872.5" y="437" width="0.3" height="15.0" fill="rgb(223,196,16)" rx="2" ry="2" />
<text  x="875.45" y="447.5" ></text>
</g>
<g >
<title>[[kernel.kallsyms]] (1 samples, 0.03%)</title><rect x="10.9" y="261" width="0.3" height="15.0" fill="rgb(219,202,45)" rx="2" ry="2" />
<text  x="13.93" y="271.5" ></text>
</g>
<g >
<title>AddPoint (1 samples, 0.03%)</title><rect x="10.3" y="469" width="0.3" height="15.0" fill="rgb(242,113,15)" rx="2" ry="2" />
<text  x="13.31" y="479.5" ></text>
</g>
<g >
<title>[[kernel.kallsyms]] (21 samples, 0.55%)</title><rect x="64.4" y="405" width="6.5" height="15.0" fill="rgb(225,83,40)" rx="2" ry="2" />
<text  x="67.37" y="415.5" ></text>
</g>
<g >
<title>__strlen_avx2 (14 samples, 0.37%)</title><rect x="85.7" y="437" width="4.3" height="15.0" fill="rgb(211,225,5)" rx="2" ry="2" />
<text  x="88.68" y="447.5" ></text>
</g>
<g >
<title>[[kernel.kallsyms]] (1 samples, 0.03%)</title><rect x="72.1" y="341" width="0.3" height="15.0" fill="rgb(226,73,19)" rx="2" ry="2" />
<text  x="75.09" y="351.5" ></text>
</g>
<g >
<title>ministat (3,812 samples, 99.79%)</title><rect x="10.0" y="501" width="1177.5" height="15.0" fill="rgb(251,45,20)" rx="2" ry="2" />
<text  x="13.00" y="511.5" >ministat</text>
</g>
<g >
<title>[[kernel.kallsyms]] (6 samples, 0.16%)</title><rect x="1188.1" y="229" width="1.9" height="15.0" fill="rgb(248,102,40)" rx="2" ry="2" />
<text  x="1191.15" y="239.5" ></text>
</g>
<g >
<title>malloc (43 samples, 1.13%)</title><rect x="949.1" y="485" width="13.2" height="15.0" fill="rgb(245,2,5)" rx="2" ry="2" />
<text  x="952.06" y="495.5" ></text>
</g>
<g >
<title>dbl_cmp (53 samples, 1.39%)</title><rect x="932.7" y="485" width="16.4" height="15.0" fill="rgb(218,9,18)" rx="2" ry="2" />
<text  x="935.69" y="495.5" ></text>
</g>
<g >
<title>[[kernel.kallsyms]] (18 samples, 0.47%)</title><rect x="866.6" y="165" width="5.5" height="15.0" fill="rgb(229,214,35)" rx="2" ry="2" />
<text  x="869.58" y="175.5" ></text>
</g>
<g >
<title>[[kernel.kallsyms]] (8 samples, 0.21%)</title><rect x="1187.5" y="389" width="2.5" height="15.0" fill="rgb(253,75,38)" rx="2" ry="2" />
<text  x="1190.53" y="399.5" ></text>
</g>
<g >
<title>[[kernel.kallsyms]] (1 samples, 0.03%)</title><rect x="948.7" y="421" width="0.4" height="15.0" fill="rgb(207,135,3)" rx="2" ry="2" />
<text  x="951.75" y="431.5" ></text>
</g>
<g >
<title>free@plt (3 samples, 0.08%)</title><rect x="93.1" y="437" width="0.9" height="15.0" fill="rgb(210,23,8)" rx="2" ry="2" />
<text  x="96.09" y="447.5" ></text>
</g>
<g >
<title>[[kernel.kallsyms]] (6 samples, 0.16%)</title><rect x="1188.1" y="245" width="1.9" height="15.0" fill="rgb(242,121,29)" rx="2" ry="2" />
<text  x="1191.15" y="255.5" ></text>
</g>
<g >
<title>[[kernel.kallsyms]] (9 samples, 0.24%)</title><rect x="1016.4" y="389" width="2.8" height="15.0" fill="rgb(217,154,19)" rx="2" ry="2" />
<text  x="1019.40" y="399.5" ></text>
</g>
<g >
<title>[[kernel.kallsyms]] (127 samples, 3.32%)</title><rect x="832.9" y="261" width="39.2" height="15.0" fill="rgb(230,71,41)" rx="2" ry="2" />
<text  x="835.91" y="271.5" >[[k..</text>
</g>
<g >
<title>[[kernel.kallsyms]] (1 samples, 0.03%)</title><rect x="72.1" y="277" width="0.3" height="15.0" fill="rgb(219,127,47)" rx="2" ry="2" />
<text  x="75.09" y="287.5" ></text>
</g>
<g >
<title>[[kernel.kallsyms]] (8 samples, 0.21%)</title><rect x="1187.5" y="341" width="2.5" height="15.0" fill="rgb(240,154,21)" rx="2" ry="2" />
<text  x="1190.53" y="351.5" ></text>
</g>
<g >
<title>[[kernel.kallsyms]] (4 samples, 0.10%)</title><rect x="44.9" y="405" width="1.2" height="15.0" fill="rgb(216,183,51)" rx="2" ry="2" />
<text  x="47.91" y="415.5" ></text>
</g>
<g >
<title>str_to_mpn.isra.0 (18 samples, 0.47%)</title><rect x="892.2" y="469" width="5.6" height="15.0" fill="rgb(254,28,34)" rx="2" ry="2" />
<text  x="895.22" y="479.5" ></text>
</g>
<g >
<title>[[kernel.kallsyms]] (3 samples, 0.08%)</title><rect x="45.2" y="357" width="0.9" height="15.0" fill="rgb(236,118,48)" rx="2" ry="2" />
<text  x="48.21" y="367.5" ></text>
</g>
<g >
<title>[[kernel.kallsyms]] (1 samples, 0.03%)</title><rect x="10.3" y="453" width="0.3" height="15.0" fill="rgb(232,36,1)" rx="2" ry="2" />
<text  x="13.31" y="463.5" ></text>
</g>
<g >
<title>dbl_cmp (521 samples, 13.64%)</title><rect x="1019.2" y="469" width="160.9" height="15.0" fill="rgb(236,165,19)" rx="2" ry="2" />
<text  x="1022.18" y="479.5" >dbl_cmp</text>
</g>
<g >
<title>[[kernel.kallsyms]] (13 samples, 0.34%)</title><rect x="66.8" y="277" width="4.1" height="15.0" fill="rgb(233,88,26)" rx="2" ry="2" />
<text  x="69.84" y="287.5" ></text>
</g>
<g >
<title>[[kernel.kallsyms]] (2 samples, 0.05%)</title><rect x="10.6" y="421" width="0.6" height="15.0" fill="rgb(217,63,38)" rx="2" ry="2" />
<text  x="13.62" y="431.5" ></text>
</g>
<g >
<title>__libc_start_main (2,676 samples, 70.05%)</title><rect x="46.1" y="469" width="826.7" height="15.0" fill="rgb(206,141,6)" rx="2" ry="2" />
<text  x="49.14" y="479.5" >__libc_start_main</text>
</g>
<g >
<title>[[kernel.kallsyms]] (1 samples, 0.03%)</title><rect x="902.7" y="389" width="0.3" height="15.0" fill="rgb(214,34,19)" rx="2" ry="2" />
<text  x="905.72" y="399.5" ></text>
</g>
<g >
<title>__munmap (1 samples, 0.03%)</title><rect x="72.1" y="421" width="0.3" height="15.0" fill="rgb(220,8,17)" rx="2" ry="2" />
<text  x="75.09" y="431.5" ></text>
</g>
<g >
<title>[[kernel.kallsyms]] (1 samples, 0.03%)</title><rect x="948.7" y="309" width="0.4" height="15.0" fill="rgb(249,197,1)" rx="2" ry="2" />
<text  x="951.75" y="319.5" ></text>
</g>
<g >
<title>[[kernel.kallsyms]] (8 samples, 0.21%)</title><rect x="1187.5" y="421" width="2.5" height="15.0" fill="rgb(229,132,53)" rx="2" ry="2" />
<text  x="1190.53" y="431.5" ></text>
</g>
<g >
<title>[[kernel.kallsyms]] (8 samples, 0.21%)</title><rect x="869.7" y="101" width="2.4" height="15.0" fill="rgb(239,189,12)" rx="2" ry="2" />
<text  x="872.67" y="111.5" ></text>
</g>
<g >
<title>[[kernel.kallsyms]] (8 samples, 0.21%)</title><rect x="1187.5" y="469" width="2.5" height="15.0" fill="rgb(213,190,25)" rx="2" ry="2" />
<text  x="1190.53" y="479.5" ></text>
</g>
<g >
<title>[[kernel.kallsyms]] (673 samples, 17.62%)</title><rect x="664.3" y="341" width="207.8" height="15.0" fill="rgb(246,216,20)" rx="2" ry="2" />
<text  x="667.25" y="351.5" >[[kernel.kallsyms]]</text>
</g>
<g >
<title>[[kernel.kallsyms]] (9 samples, 0.24%)</title><rect x="1016.4" y="437" width="2.8" height="15.0" fill="rgb(244,23,24)" rx="2" ry="2" />
<text  x="1019.40" y="447.5" ></text>
</g>
<g >
<title>[[kernel.kallsyms]] (8 samples, 0.21%)</title><rect x="1187.5" y="373" width="2.5" height="15.0" fill="rgb(236,200,15)" rx="2" ry="2" />
<text  x="1190.53" y="383.5" ></text>
</g>
<g >
<title>perf (8 samples, 0.21%)</title><rect x="1187.5" y="501" width="2.5" height="15.0" fill="rgb(240,15,40)" rx="2" ry="2" />
<text  x="1190.53" y="511.5" ></text>
</g>
<g >
<title>[[kernel.kallsyms]] (21 samples, 0.55%)</title><rect x="865.7" y="229" width="6.4" height="15.0" fill="rgb(236,2,51)" rx="2" ry="2" />
<text  x="868.65" y="239.5" ></text>
</g>
<g >
<title>AddPoint (1 samples, 0.03%)</title><rect x="46.1" y="437" width="0.4" height="15.0" fill="rgb(252,3,9)" rx="2" ry="2" />
<text  x="49.14" y="447.5" ></text>
</g>
<g >
<title>[[kernel.kallsyms]] (13 samples, 0.34%)</title><rect x="66.8" y="261" width="4.1" height="15.0" fill="rgb(248,173,18)" rx="2" ry="2" />
<text  x="69.84" y="271.5" ></text>
</g>
<g >
<title>[[kernel.kallsyms]] (8 samples, 0.21%)</title><rect x="1187.5" y="293" width="2.5" height="15.0" fill="rgb(236,62,32)" rx="2" ry="2" />
<text  x="1190.53" y="303.5" ></text>
</g>
<g >
<title>[[kernel.kallsyms]] (4 samples, 0.10%)</title><rect x="44.9" y="437" width="1.2" height="15.0" fill="rgb(244,166,38)" rx="2" ry="2" />
<text  x="47.91" y="447.5" ></text>
</g>
<g >
<title>__memmove_avx_unaligned_erms (7 samples, 0.18%)</title><rect x="82.6" y="437" width="2.2" height="15.0" fill="rgb(246,54,8)" rx="2" ry="2" />
<text  x="85.59" y="447.5" ></text>
</g>
<g >
<title>__memmove_avx_unaligned_erms (4 samples, 0.10%)</title><rect x="70.9" y="421" width="1.2" height="15.0" fill="rgb(245,24,37)" rx="2" ry="2" />
<text  x="73.85" y="431.5" ></text>
</g>
<g >
<title>[[kernel.kallsyms]] (4 samples, 0.10%)</title><rect x="44.9" y="453" width="1.2" height="15.0" fill="rgb(248,154,4)" rx="2" ry="2" />
<text  x="47.91" y="463.5" ></text>
</g>
<g >
<title>[[kernel.kallsyms]] (335 samples, 8.77%)</title><rect x="768.7" y="293" width="103.4" height="15.0" fill="rgb(235,68,7)" rx="2" ry="2" />
<text  x="771.66" y="303.5" >[[kernel.kal..</text>
</g>
<g >
<title>[[kernel.kallsyms]] (4 samples, 0.10%)</title><rect x="44.9" y="373" width="1.2" height="15.0" fill="rgb(231,142,13)" rx="2" ry="2" />
<text  x="47.91" y="383.5" ></text>
</g>
<g >
<title>__strdup (5 samples, 0.13%)</title><rect x="878.6" y="469" width="1.6" height="15.0" fill="rgb(237,132,15)" rx="2" ry="2" />
<text  x="881.63" y="479.5" ></text>
</g>
<g >
<title>__GI___mremap (1 samples, 0.03%)</title><rect x="902.7" y="485" width="0.3" height="15.0" fill="rgb(213,94,32)" rx="2" ry="2" />
<text  x="905.72" y="495.5" ></text>
</g>
<g >
<title>[[kernel.kallsyms]] (8 samples, 0.21%)</title><rect x="1187.5" y="453" width="2.5" height="15.0" fill="rgb(231,177,16)" rx="2" ry="2" />
<text  x="1190.53" y="463.5" ></text>
</g>
<g >
<title>__strdup (3 samples, 0.08%)</title><rect x="84.8" y="437" width="0.9" height="15.0" fill="rgb(226,164,29)" rx="2" ry="2" />
<text  x="87.75" y="447.5" ></text>
</g>
<g >
<title>[[kernel.kallsyms]] (1,766 samples, 46.23%)</title><rect x="326.6" y="405" width="545.5" height="15.0" fill="rgb(251,224,33)" rx="2" ry="2" />
<text  x="329.62" y="415.5" >[[kernel.kallsyms]]</text>
</g>
<g >
<title>[[kernel.kallsyms]] (8 samples, 0.21%)</title><rect x="1187.5" y="485" width="2.5" height="15.0" fill="rgb(225,8,18)" rx="2" ry="2" />
<text  x="1190.53" y="495.5" ></text>
</g>
<g >
<title>cfree@GLIBC_2.2.5 (11 samples, 0.29%)</title><rect x="929.3" y="485" width="3.4" height="15.0" fill="rgb(250,172,32)" rx="2" ry="2" />
<text  x="932.29" y="495.5" ></text>
</g>
<g >
<title>[[kernel.kallsyms]] (8 samples, 0.21%)</title><rect x="1187.5" y="437" width="2.5" height="15.0" fill="rgb(240,5,45)" rx="2" ry="2" />
<text  x="1190.53" y="447.5" ></text>
</g>
<g >
<title>[[kernel.kallsyms]] (8 samples, 0.21%)</title><rect x="1187.5" y="325" width="2.5" height="15.0" fill="rgb(216,155,4)" rx="2" ry="2" />
<text  x="1190.53" y="335.5" ></text>
</g>
<g >
<title>@plt (1 samples, 0.03%)</title><rect x="10.0" y="485" width="0.3" height="15.0" fill="rgb(230,187,6)" rx="2" ry="2" />
<text  x="13.00" y="495.5" ></text>
</g>
<g >
<title>[[kernel.kallsyms]] (12 samples, 0.31%)</title><rect x="1015.5" y="453" width="3.7" height="15.0" fill="rgb(222,200,51)" rx="2" ry="2" />
<text  x="1018.47" y="463.5" ></text>
</g>
<g >
<title>cfree@GLIBC_2.2.5 (8 samples, 0.21%)</title><rect x="90.6" y="437" width="2.5" height="15.0" fill="rgb(247,125,15)" rx="2" ry="2" />
<text  x="93.62" y="447.5" ></text>
</g>
<g >
<title>[[kernel.kallsyms]] (20 samples, 0.52%)</title><rect x="866.0" y="181" width="6.1" height="15.0" fill="rgb(230,150,16)" rx="2" ry="2" />
<text  x="868.96" y="191.5" ></text>
</g>
<g >
<title>[[kernel.kallsyms]] (1 samples, 0.03%)</title><rect x="72.1" y="357" width="0.3" height="15.0" fill="rgb(207,178,21)" rx="2" ry="2" />
<text  x="75.09" y="367.5" ></text>
</g>
<g >
<title>[[kernel.kallsyms]] (6 samples, 0.16%)</title><rect x="1017.3" y="325" width="1.9" height="15.0" fill="rgb(210,89,18)" rx="2" ry="2" />
<text  x="1020.32" y="335.5" ></text>
</g>
<g >
<title>main (2,676 samples, 70.05%)</title><rect x="46.1" y="453" width="826.7" height="15.0" fill="rgb(220,185,6)" rx="2" ry="2" />
<text  x="49.14" y="463.5" >main</text>
</g>
<g >
<title>[[kernel.kallsyms]] (1 samples, 0.03%)</title><rect x="948.7" y="357" width="0.4" height="15.0" fill="rgb(243,188,12)" rx="2" ry="2" />
<text  x="951.75" y="367.5" ></text>
</g>
<g >
<title>[[kernel.kallsyms]] (1 samples, 0.03%)</title><rect x="72.1" y="309" width="0.3" height="15.0" fill="rgb(223,171,21)" rx="2" ry="2" />
<text  x="75.09" y="319.5" ></text>
</g>
<g >
<title>[[kernel.kallsyms]] (21 samples, 0.55%)</title><rect x="865.7" y="213" width="6.4" height="15.0" fill="rgb(236,166,24)" rx="2" ry="2" />
<text  x="868.65" y="223.5" ></text>
</g>
<g >
<title>[[kernel.kallsyms]] (1 samples, 0.03%)</title><rect x="902.7" y="373" width="0.3" height="15.0" fill="rgb(218,222,14)" rx="2" ry="2" />
<text  x="905.72" y="383.5" ></text>
</g>
<g >
<title>[[kernel.kallsyms]] (106 samples, 2.77%)</title><rect x="839.4" y="245" width="32.7" height="15.0" fill="rgb(248,160,2)" rx="2" ry="2" />
<text  x="842.40" y="255.5" >[[..</text>
</g>
<g >
<title>__memmove_avx_unaligned_erms (79 samples, 2.07%)</title><rect x="903.0" y="485" width="24.4" height="15.0" fill="rgb(211,144,53)" rx="2" ry="2" />
<text  x="906.03" y="495.5" >_..</text>
</g>
<g >
<title>[[kernel.kallsyms]] (1 samples, 0.03%)</title><rect x="10.9" y="325" width="0.3" height="15.0" fill="rgb(242,169,6)" rx="2" ry="2" />
<text  x="13.93" y="335.5" ></text>
</g>
<g >
<title>[[kernel.kallsyms]] (7 samples, 0.18%)</title><rect x="1017.0" y="357" width="2.2" height="15.0" fill="rgb(218,50,33)" rx="2" ry="2" />
<text  x="1020.02" y="367.5" ></text>
</g>
<g >
<title>[[kernel.kallsyms]] (6 samples, 0.16%)</title><rect x="870.3" y="85" width="1.8" height="15.0" fill="rgb(230,12,19)" rx="2" ry="2" />
<text  x="873.29" y="95.5" ></text>
</g>
<g >
<title>[[kernel.kallsyms]] (8 samples, 0.21%)</title><rect x="1187.5" y="277" width="2.5" height="15.0" fill="rgb(229,112,4)" rx="2" ry="2" />
<text  x="1190.53" y="287.5" ></text>
</g>
<g >
<title>[libc-2.27.so] (2 samples, 0.05%)</title><rect x="25.4" y="469" width="0.7" height="15.0" fill="rgb(230,40,51)" rx="2" ry="2" />
<text  x="28.45" y="479.5" ></text>
</g>
<g >
<title>msort_with_tmp.part.0 (705 samples, 18.46%)</title><rect x="962.3" y="485" width="217.8" height="15.0" fill="rgb(213,192,14)" rx="2" ry="2" />
<text  x="965.34" y="495.5" >msort_with_tmp.part.0</text>
</g>
<g >
<title>[[kernel.kallsyms]] (1 samples, 0.03%)</title><rect x="45.8" y="309" width="0.3" height="15.0" fill="rgb(246,210,7)" rx="2" ry="2" />
<text  x="48.83" y="319.5" ></text>
</g>
<g >
<title>ReadSet (1 samples, 0.03%)</title><rect x="10.3" y="485" width="0.3" height="15.0" fill="rgb(214,24,26)" rx="2" ry="2" />
<text  x="13.31" y="495.5" ></text>
</g>
<g >
<title>[[kernel.kallsyms]] (1 samples, 0.03%)</title><rect x="948.7" y="325" width="0.4" height="15.0" fill="rgb(226,48,9)" rx="2" ry="2" />
<text  x="951.75" y="335.5" ></text>
</g>
</g>
</svg>
